<svg id="Layer_1" data-name="Layer 1" xmlns="http://www.w3.org/2000/svg" viewBox="0 0 750 500"><defs><style>.cls-1{fill:#f5f5f5;}.cls-2{fill:#e0e0e0;}.cls-3{fill:#fff;}.cls-4{fill:#ebebeb;}.cls-5{fill:#fafafa;}.cls-6{fill:#263238;}.cls-7{fill:#ffbe9d;}.cls-8{fill:#455a64;}.cls-9{fill:#4fbe99;}.cls-10{opacity:0.3;}.cls-11{fill:#eb996e;}.cls-12{fill:#b78876;}.cls-13{fill:#aa6550;}.cls-14{opacity:0.5;}.cls-15{opacity:0.2;}.cls-16{fill:#55b4d4;}.cls-17{fill:#f07171;}.cls-18{fill:#a37acc;}.cls-19{fill:#ffd580;}.cls-20{fill:#b595d6;}</style></defs><g id="freepik--background-complete--inject-170"><path class="cls-1" d="M347.27,444.1c12.8-8.94,15.7-25.54,15.2-40.46-.09-2.49.18-5.11-1-7.3s-4-3.68-6.18-2.63c-1.85.87-2.65,3-3.69,4.8a14.52,14.52,0,0,1-5.84,5.58c-1.58.82-3.55,1.33-5.11.46-2.15-1.18-2.4-4.15-2.39-6.63l.09-13.84a23.41,23.41,0,0,0-.75-7.36,7.7,7.7,0,0,0-4.83-5.19c-2.35-.66-5.27.69-5.76,3.12a22.59,22.59,0,0,0-.08,3.08,2.58,2.58,0,0,1-1.52,2.45,3,3,0,0,1-2.72-1.13,32.73,32.73,0,0,1-5.91-8.93,45.71,45.71,0,0,0-5.52-9.21c-2.32-2.73-5.52-4.89-9.07-5.09s-7.33,2-8.22,5.47,1.13,7,3.35,9.86a55.09,55.09,0,0,0,11.51,11,4.66,4.66,0,0,1,1.93,2.07c.54,1.66-1,3.3-2.66,3.84-1.85.61-3.85.42-5.78.65s-4,1.08-4.75,2.9c-1,2.54,1.1,5.19,3.18,6.93a47.22,47.22,0,0,0,14,8.09,15.86,15.86,0,0,1,5.21,2.53c1.47,1.28,2.35,3.51,1.47,5.25s-3.17,2.3-5.08,1.95-3.62-1.39-5.43-2.08c-3.41-1.28-7.8-1-10,1.9a7.84,7.84,0,0,0-.84,6.93,18.09,18.09,0,0,0,3.76,6.12,47.61,47.61,0,0,0,20.33,14.29c7.9,2.74,15.21,3.48,23.06.61"/><path class="cls-2" d="M347.47,455.16a108.31,108.31,0,0,0-4.05-20.41,222.82,222.82,0,0,0-8.81-23.9c-.89-2.07-1.76-4.12-2.63-6.14s-1.73-4-2.69-5.92a110.9,110.9,0,0,0-6.16-10.61c-2.12-3.28-4.26-6.32-6.27-9.14s-4-5.42-5.82-7.71a90.1,90.1,0,0,0-9.59-10.14c-1.23-1.1-2.2-1.93-2.87-2.48l-.77-.62-.27-.2a1.36,1.36,0,0,0,.24.24l.74.66c.65.57,1.61,1.41,2.81,2.54a91.39,91.39,0,0,1,9.46,10.21c1.84,2.29,3.76,4.89,5.76,7.72s4.12,5.87,6.23,9.15A110.14,110.14,0,0,1,328.89,399c.95,1.89,1.8,3.87,2.67,5.89s1.74,4.07,2.63,6.14A227.85,227.85,0,0,1,343,434.87a110.8,110.8,0,0,1,4.13,20.32"/><path class="cls-2" d="M329.16,398.77a5.61,5.61,0,0,0,.24-1c.13-.69.28-1.68.46-2.92.35-2.46.72-5.88,1.11-9.66s.8-7.18,1.19-9.64c.19-1.22.35-2.22.47-2.9a4.83,4.83,0,0,0,.14-1.07,5,5,0,0,0-.31,1c-.17.68-.39,1.66-.62,2.89-.47,2.45-.94,5.86-1.33,9.64s-.71,7.1-1,9.67c-.13,1.17-.23,2.15-.32,2.93A4.7,4.7,0,0,0,329.16,398.77Z"/><path class="cls-2" d="M297.31,392.82a6.79,6.79,0,0,0,1.27.16c.82.07,2,.17,3.46.34,2.92.31,6.93.89,11.33,1.72s8.35,1.76,11.19,2.51c1.42.37,2.56.7,3.35.92a6.7,6.7,0,0,0,1.25.3,7.18,7.18,0,0,0-1.19-.47c-.78-.28-1.91-.65-3.33-1.06-2.82-.84-6.77-1.82-11.19-2.66A111.6,111.6,0,0,0,302.07,393c-1.47-.13-2.66-.18-3.48-.19A6.84,6.84,0,0,0,297.31,392.82Z"/><path class="cls-2" d="M343,434.16a1.87,1.87,0,0,0,.22-.39c.14-.31.32-.69.54-1.15.47-1,1.11-2.47,1.88-4.3,1.53-3.64,3.5-8.75,5.59-14.41s4-10.79,5.46-14.46c.71-1.79,1.3-3.26,1.74-4.35l.47-1.18a2.13,2.13,0,0,0,.13-.43,1.87,1.87,0,0,0-.22.39c-.15.31-.33.69-.54,1.15-.47,1-1.11,2.47-1.88,4.3-1.53,3.64-3.5,8.75-5.59,14.41s-4,10.79-5.46,14.46l-1.74,4.35-.47,1.18C343.06,434,343,434.15,343,434.16Z"/><path class="cls-2" d="M300.71,420.52a1.57,1.57,0,0,0,.42.18l1.23.41,4.53,1.47c3.83,1.24,9.09,3,14.91,5s11.1,3.7,14.95,4.86c1.93.58,3.49,1,4.58,1.33l1.25.33a1.38,1.38,0,0,0,.45.08,1.54,1.54,0,0,0-.42-.17l-1.23-.41-4.53-1.47c-3.83-1.24-9.09-3-14.91-5s-11.1-3.69-14.95-4.86c-1.93-.58-3.49-1-4.58-1.32l-1.25-.33A2.42,2.42,0,0,0,300.71,420.52Z"/><rect class="cls-2" x="461.72" y="215.86" width="84.44" height="69.52"/><rect class="cls-1" x="449.39" y="262.66" width="92.31" height="22.9"/><path class="cls-2" d="M478.62,268.83a1,1,0,1,1-1-1A1,1,0,0,1,478.62,268.83Z"/><path class="cls-2" d="M483.23,268.83a1,1,0,1,1,0-.05Z"/><path class="cls-2" d="M487.83,268.83a1,1,0,1,1,0-.05Z"/><path class="cls-2" d="M492.43,268.83a1,1,0,1,1,0-.05Z"/><path class="cls-2" d="M528.08,268.83a1,1,0,1,1-1-1A1,1,0,0,1,528.08,268.83Z"/><path class="cls-2" d="M532.77,268.83a1,1,0,1,1-1-1A1,1,0,0,1,532.77,268.83Z"/><path class="cls-2" d="M497,268.83a1,1,0,1,1-1-1A1,1,0,0,1,497,268.83Z"/><path class="cls-2" d="M519.62,268.83a1,1,0,1,1-1-1A1,1,0,0,1,519.62,268.83Z"/><path class="cls-2" d="M501.63,268.83a1,1,0,1,1-1-1A1,1,0,0,1,501.63,268.83Z"/><path class="cls-2" d="M506.23,268.83a1,1,0,1,1-1-1A1,1,0,0,1,506.23,268.83Z"/><path class="cls-2" d="M515.57,268.83a1,1,0,1,1,0-.05Z"/><path class="cls-2" d="M536.59,268.83a1,1,0,1,1-1-1A1,1,0,0,1,536.59,268.83Z"/><path class="cls-2" d="M510.83,268.83a1,1,0,1,1-1-1A1,1,0,0,1,510.83,268.83Z"/><path class="cls-2" d="M524,268.83a1,1,0,1,1-1-1A1,1,0,0,1,524,268.83Z"/><path class="cls-2" d="M534.51,273.86a1,1,0,1,1,1,1A1,1,0,0,1,534.51,273.86Z"/><path class="cls-2" d="M529.91,273.86a1,1,0,1,1,1,1A1,1,0,0,1,529.91,273.86Z"/><path class="cls-2" d="M525.3,273.86a1,1,0,1,1,0,.05Z"/><path class="cls-2" d="M520.7,273.86a1,1,0,1,1,1,1A1,1,0,0,1,520.7,273.86Z"/><path class="cls-2" d="M485.05,273.86a1,1,0,1,1,1,1A1,1,0,0,1,485.05,273.86Z"/><path class="cls-2" d="M480.36,273.86a1,1,0,1,1,1,1A1,1,0,0,1,480.36,273.86Z"/><path class="cls-2" d="M516.1,273.86a1,1,0,1,1,1,1A1,1,0,0,1,516.1,273.86Z"/><path class="cls-2" d="M493.51,273.86a1,1,0,1,1,1,1A1,1,0,0,1,493.51,273.86Z"/><path class="cls-2" d="M511.5,273.86a1,1,0,1,1,1,1A1,1,0,0,1,511.5,273.86Z"/><path class="cls-2" d="M506.9,273.86a1,1,0,1,1,1,1A1,1,0,0,1,506.9,273.86Z"/><path class="cls-2" d="M497.56,273.86a1,1,0,1,1,0,.05Z"/><path class="cls-2" d="M476.54,273.86a1,1,0,1,1,1,1A1,1,0,0,1,476.54,273.86Z"/><path class="cls-2" d="M502.3,273.86a1,1,0,1,1,1,1A1,1,0,0,1,502.3,273.86Z"/><path class="cls-2" d="M489.12,273.86a1,1,0,1,1,0,.05Z"/><path class="cls-2" d="M478.62,278.33a1,1,0,1,1-1-1A1,1,0,0,1,478.62,278.33Z"/><path class="cls-2" d="M483.23,278.33a1,1,0,1,1,0-.05Z"/><path class="cls-2" d="M487.83,278.33a1,1,0,1,1,0-.05Z"/><path class="cls-2" d="M492.43,278.33a1,1,0,1,1,0-.05Z"/><circle class="cls-2" cx="527.04" cy="278.33" r="1.04"/><circle class="cls-2" cx="531.73" cy="278.33" r="1.04"/><path class="cls-2" d="M497,278.33a1,1,0,1,1-1-1A1,1,0,0,1,497,278.33Z"/><circle class="cls-2" cx="518.58" cy="278.33" r="1.04"/><path class="cls-2" d="M501.63,278.33a1,1,0,1,1-1-1A1,1,0,0,1,501.63,278.33Z"/><path class="cls-2" d="M506.23,278.33a1,1,0,1,1-1-1A1,1,0,0,1,506.23,278.33Z"/><circle class="cls-2" cx="514.52" cy="278.33" r="1.04"/><path class="cls-2" d="M536.59,278.33a1,1,0,1,1-1-1A1,1,0,0,1,536.59,278.33Z"/><path class="cls-2" d="M510.83,278.33a1,1,0,1,1-1-1A1,1,0,0,1,510.83,278.33Z"/><circle class="cls-2" cx="522.96" cy="278.33" r="1.04"/><rect class="cls-2" x="453.49" y="267.37" width="18.18" height="2.8"/><rect class="cls-2" x="453.49" y="272.18" width="18.18" height="2.8"/><rect class="cls-2" x="453.49" y="277.16" width="18.18" height="2.8"/><polygon class="cls-2" points="555.58 285.34 541.7 285.38 541.7 262.69 555.58 262.66 555.58 285.34"/><rect class="cls-1" x="449.39" y="235.3" width="92.31" height="22.9"/><path class="cls-2" d="M478.62,241.48a1,1,0,1,1-1-1A1,1,0,0,1,478.62,241.48Z"/><path class="cls-2" d="M483.23,241.48a1,1,0,1,1-1.05-1,1,1,0,0,1,1.05,1Z"/><path class="cls-2" d="M487.83,241.48a1,1,0,1,1-1.05-1,1,1,0,0,1,1.05,1Z"/><path class="cls-2" d="M492.43,241.48a1,1,0,1,1-1.05-1,1,1,0,0,1,1.05,1Z"/><path class="cls-2" d="M528.08,241.48a1,1,0,1,1-1-1A1,1,0,0,1,528.08,241.48Z"/><path class="cls-2" d="M532.77,241.48a1,1,0,1,1-1-1A1,1,0,0,1,532.77,241.48Z"/><path class="cls-2" d="M497,241.48a1,1,0,1,1-1-1A1,1,0,0,1,497,241.48Z"/><path class="cls-2" d="M519.62,241.48a1,1,0,1,1-1-1A1,1,0,0,1,519.62,241.48Z"/><path class="cls-2" d="M501.63,241.48a1,1,0,1,1-1-1A1,1,0,0,1,501.63,241.48Z"/><path class="cls-2" d="M506.23,241.48a1,1,0,1,1-1-1A1,1,0,0,1,506.23,241.48Z"/><path class="cls-2" d="M515.57,241.48a1,1,0,1,1-1.05-1,1,1,0,0,1,1.05,1Z"/><path class="cls-2" d="M536.59,241.48a1,1,0,1,1-1-1A1,1,0,0,1,536.59,241.48Z"/><path class="cls-2" d="M510.83,241.48a1,1,0,1,1-1-1A1,1,0,0,1,510.83,241.48Z"/><path class="cls-2" d="M524,241.48a1,1,0,1,1-1-1A1,1,0,0,1,524,241.48Z"/><path class="cls-2" d="M534.51,246.5a1,1,0,1,1,1,1A1,1,0,0,1,534.51,246.5Z"/><path class="cls-2" d="M529.91,246.5a1,1,0,1,1,1,1A1,1,0,0,1,529.91,246.5Z"/><path class="cls-2" d="M525.3,246.5a1,1,0,1,1,0,.05Z"/><path class="cls-2" d="M520.7,246.5a1,1,0,1,1,1,1A1,1,0,0,1,520.7,246.5Z"/><path class="cls-2" d="M485.05,246.5a1,1,0,1,1,1,1A1,1,0,0,1,485.05,246.5Z"/><path class="cls-2" d="M480.36,246.5a1,1,0,1,1,1,1A1,1,0,0,1,480.36,246.5Z"/><path class="cls-2" d="M516.1,246.5a1,1,0,1,1,1,1A1,1,0,0,1,516.1,246.5Z"/><path class="cls-2" d="M493.51,246.5a1,1,0,1,1,1,1A1,1,0,0,1,493.51,246.5Z"/><path class="cls-2" d="M511.5,246.5a1,1,0,1,1,1,1A1,1,0,0,1,511.5,246.5Z"/><path class="cls-2" d="M506.9,246.5a1,1,0,1,1,1,1A1,1,0,0,1,506.9,246.5Z"/><path class="cls-2" d="M497.56,246.5a1,1,0,1,1,0,.05Z"/><path class="cls-2" d="M476.54,246.5a1,1,0,1,1,1,1A1,1,0,0,1,476.54,246.5Z"/><path class="cls-2" d="M502.3,246.5a1,1,0,1,1,1,1A1,1,0,0,1,502.3,246.5Z"/><path class="cls-2" d="M489.12,246.5a1,1,0,1,1,0,.05Z"/><path class="cls-2" d="M478.62,251a1,1,0,1,1-1-1A1,1,0,0,1,478.62,251Z"/><path class="cls-2" d="M483.23,251a1,1,0,1,1,0-.05Z"/><path class="cls-2" d="M487.83,251a1,1,0,1,1,0-.05Z"/><path class="cls-2" d="M492.43,251a1,1,0,1,1,0-.05Z"/><path class="cls-2" d="M528.08,251a1,1,0,1,1-1-1A1,1,0,0,1,528.08,251Z"/><path class="cls-2" d="M532.77,251a1,1,0,1,1-1-1A1,1,0,0,1,532.77,251Z"/><path class="cls-2" d="M497,251a1,1,0,1,1-1-1A1,1,0,0,1,497,251Z"/><path class="cls-2" d="M519.62,251a1,1,0,1,1-1-1A1,1,0,0,1,519.62,251Z"/><path class="cls-2" d="M501.63,251a1,1,0,1,1-1-1A1,1,0,0,1,501.63,251Z"/><path class="cls-2" d="M506.23,251a1,1,0,1,1-1-1A1,1,0,0,1,506.23,251Z"/><path class="cls-2" d="M515.57,251a1,1,0,1,1,0-.05Z"/><path class="cls-2" d="M536.59,251a1,1,0,1,1-1-1A1,1,0,0,1,536.59,251Z"/><path class="cls-2" d="M510.83,251a1,1,0,1,1-1-1A1,1,0,0,1,510.83,251Z"/><path class="cls-2" d="M524,251a1,1,0,1,1-1-1A1,1,0,0,1,524,251Z"/><rect class="cls-2" x="453.49" y="240.01" width="18.18" height="2.8"/><rect class="cls-2" x="453.49" y="244.82" width="18.18" height="2.8"/><rect class="cls-2" x="453.49" y="249.8" width="18.18" height="2.8"/><polygon class="cls-2" points="555.58 257.98 541.7 258.02 541.7 235.33 555.58 235.3 555.58 257.98"/><rect class="cls-1" x="449.39" y="208.83" width="92.31" height="22.9"/><path class="cls-2" d="M478.62,215a1,1,0,1,1-1-1A1,1,0,0,1,478.62,215Z"/><path class="cls-2" d="M483.23,215a1,1,0,1,1,0-.05Z"/><path class="cls-2" d="M487.83,215a1,1,0,1,1,0-.05Z"/><path class="cls-2" d="M492.43,215a1,1,0,1,1,0-.05Z"/><path class="cls-2" d="M528.08,215a1,1,0,1,1-1-1A1,1,0,0,1,528.08,215Z"/><path class="cls-2" d="M532.77,215a1,1,0,1,1-1-1A1,1,0,0,1,532.77,215Z"/><path class="cls-2" d="M497,215a1,1,0,1,1-1-1A1,1,0,0,1,497,215Z"/><path class="cls-2" d="M519.62,215a1,1,0,1,1-1-1A1,1,0,0,1,519.62,215Z"/><path class="cls-2" d="M501.63,215a1,1,0,1,1-1-1A1,1,0,0,1,501.63,215Z"/><path class="cls-2" d="M506.23,215a1,1,0,1,1-1-1A1,1,0,0,1,506.23,215Z"/><path class="cls-2" d="M515.57,215a1,1,0,1,1,0-.05Z"/><path class="cls-2" d="M536.59,215a1,1,0,1,1-1-1A1,1,0,0,1,536.59,215Z"/><path class="cls-2" d="M510.83,215a1,1,0,1,1-1-1A1,1,0,0,1,510.83,215Z"/><path class="cls-2" d="M524,215a1,1,0,1,1-1-1A1,1,0,0,1,524,215Z"/><path class="cls-2" d="M534.51,220a1,1,0,1,1,1,1A1,1,0,0,1,534.51,220Z"/><path class="cls-2" d="M529.91,220a1,1,0,1,1,1,1A1,1,0,0,1,529.91,220Z"/><path class="cls-2" d="M525.3,220a1,1,0,1,1,0,.05Z"/><path class="cls-2" d="M520.7,220a1,1,0,1,1,1,1A1,1,0,0,1,520.7,220Z"/><path class="cls-2" d="M485.05,220a1,1,0,1,1,1,1A1,1,0,0,1,485.05,220Z"/><path class="cls-2" d="M480.36,220a1,1,0,1,1,1,1A1,1,0,0,1,480.36,220Z"/><path class="cls-2" d="M516.1,220a1,1,0,1,1,1,1A1,1,0,0,1,516.1,220Z"/><path class="cls-2" d="M493.51,220a1,1,0,1,1,1,1A1,1,0,0,1,493.51,220Z"/><path class="cls-2" d="M511.5,220a1,1,0,1,1,1,1A1,1,0,0,1,511.5,220Z"/><path class="cls-2" d="M506.9,220a1,1,0,1,1,1,1A1,1,0,0,1,506.9,220Z"/><path class="cls-2" d="M497.56,220a1,1,0,1,1,0,.05Z"/><path class="cls-2" d="M476.54,220a1,1,0,1,1,1,1A1,1,0,0,1,476.54,220Z"/><path class="cls-2" d="M502.3,220a1,1,0,1,1,1,1A1,1,0,0,1,502.3,220Z"/><path class="cls-2" d="M489.12,220a1,1,0,1,1,0,.05Z"/><path class="cls-2" d="M478.62,224.51a1,1,0,1,1-1-1A1,1,0,0,1,478.62,224.51Z"/><path class="cls-2" d="M483.23,224.51a1,1,0,1,1-1.05-1,1,1,0,0,1,1.05,1Z"/><path class="cls-2" d="M487.83,224.51a1,1,0,1,1-1.05-1,1,1,0,0,1,1.05,1Z"/><path class="cls-2" d="M492.43,224.51a1,1,0,1,1-1.05-1,1,1,0,0,1,1.05,1Z"/><circle class="cls-2" cx="527.04" cy="224.51" r="1.04"/><circle class="cls-2" cx="531.73" cy="224.51" r="1.04"/><path class="cls-2" d="M497,224.51a1,1,0,1,1-1-1A1,1,0,0,1,497,224.51Z"/><circle class="cls-2" cx="518.58" cy="224.51" r="1.04"/><path class="cls-2" d="M501.63,224.51a1,1,0,1,1-1-1A1,1,0,0,1,501.63,224.51Z"/><path class="cls-2" d="M506.23,224.51a1,1,0,1,1-1-1A1,1,0,0,1,506.23,224.51Z"/><circle class="cls-2" cx="514.52" cy="224.51" r="1.04"/><path class="cls-2" d="M536.59,224.51a1,1,0,1,1-1-1A1,1,0,0,1,536.59,224.51Z"/><path class="cls-2" d="M510.83,224.51a1,1,0,1,1-1-1A1,1,0,0,1,510.83,224.51Z"/><circle class="cls-2" cx="522.96" cy="224.51" r="1.04"/><rect class="cls-2" x="453.49" y="213.55" width="18.18" height="2.8"/><rect class="cls-2" x="453.49" y="218.36" width="18.18" height="2.8"/><rect class="cls-2" x="453.49" y="223.33" width="18.18" height="2.8"/><polygon class="cls-2" points="555.58 231.52 541.7 231.56 541.7 208.87 555.58 208.83 555.58 231.52"/><rect class="cls-2" x="209.67" y="214.88" width="81.01" height="66.69"/><rect class="cls-1" x="197.84" y="259.78" width="88.56" height="21.97"/><path class="cls-2" d="M225.88,265.7a1,1,0,1,1-1-1A1,1,0,0,1,225.88,265.7Z"/><path class="cls-2" d="M230.3,265.7a1,1,0,1,1-1-1A1,1,0,0,1,230.3,265.7Z"/><path class="cls-2" d="M234.71,265.7a1,1,0,1,1-1-1A1,1,0,0,1,234.71,265.7Z"/><path class="cls-2" d="M239.13,265.7a1,1,0,1,1-1-1A1,1,0,0,1,239.13,265.7Z"/><path class="cls-2" d="M273.33,265.7a1,1,0,1,1-1-1A1,1,0,0,1,273.33,265.7Z"/><path class="cls-2" d="M277.83,265.7a1,1,0,1,1-1-1A1,1,0,0,1,277.83,265.7Z"/><path class="cls-2" d="M243.54,265.7a1,1,0,1,1-1-1A1,1,0,0,1,243.54,265.7Z"/><path class="cls-2" d="M265.22,265.7a1,1,0,1,1-1-1A1,1,0,0,1,265.22,265.7Z"/><path class="cls-2" d="M248,265.7a1,1,0,1,1-1-1A1,1,0,0,1,248,265.7Z"/><path class="cls-2" d="M252.37,265.7a1,1,0,1,1-1-1A1,1,0,0,1,252.37,265.7Z"/><path class="cls-2" d="M261.32,265.7a1,1,0,1,1-1-1A1,1,0,0,1,261.32,265.7Z"/><path class="cls-2" d="M281.5,265.7a1,1,0,1,1-1-1A1,1,0,0,1,281.5,265.7Z"/><path class="cls-2" d="M256.78,265.7a1,1,0,1,1-1-1A1,1,0,0,1,256.78,265.7Z"/><path class="cls-2" d="M269.42,265.7a1,1,0,1,1-1-1A1,1,0,0,1,269.42,265.7Z"/><path class="cls-2" d="M279.49,270.52a1,1,0,1,1,1,1A1,1,0,0,1,279.49,270.52Z"/><path class="cls-2" d="M275.08,270.52a1,1,0,1,1,1,1A1,1,0,0,1,275.08,270.52Z"/><path class="cls-2" d="M270.67,270.52a1,1,0,1,1,1,1A1,1,0,0,1,270.67,270.52Z"/><path class="cls-2" d="M266.25,270.52a1,1,0,1,1,1,1A1,1,0,0,1,266.25,270.52Z"/><circle class="cls-2" cx="233.05" cy="270.52" r="1"/><path class="cls-2" d="M227.55,270.52a1,1,0,1,1,1,1A1,1,0,0,1,227.55,270.52Z"/><path class="cls-2" d="M261.84,270.52a1,1,0,1,1,1,1A1,1,0,0,1,261.84,270.52Z"/><circle class="cls-2" cx="241.16" cy="270.52" r="1"/><path class="cls-2" d="M257.42,270.52a1,1,0,1,1,1,1A1,1,0,0,1,257.42,270.52Z"/><path class="cls-2" d="M253,270.52a1,1,0,1,1,1,1A1,1,0,0,1,253,270.52Z"/><circle class="cls-2" cx="245.05" cy="270.52" r="1"/><circle class="cls-2" cx="224.88" cy="270.52" r="1"/><circle class="cls-2" cx="249.6" cy="270.52" r="1"/><circle class="cls-2" cx="236.96" cy="270.52" r="1"/><circle class="cls-2" cx="224.88" cy="274.81" r="1"/><path class="cls-2" d="M230.3,274.81a1,1,0,1,1-1-1A1,1,0,0,1,230.3,274.81Z"/><path class="cls-2" d="M234.71,274.81a1,1,0,1,1-1-1A1,1,0,0,1,234.71,274.81Z"/><path class="cls-2" d="M239.13,274.81a1,1,0,1,1-1-1A1,1,0,0,1,239.13,274.81Z"/><path class="cls-2" d="M273.33,274.81a1,1,0,1,1-1-1A1,1,0,0,1,273.33,274.81Z"/><path class="cls-2" d="M277.83,274.81a1,1,0,1,1-1-1A1,1,0,0,1,277.83,274.81Z"/><path class="cls-2" d="M243.54,274.81a1,1,0,1,1-1-1A1,1,0,0,1,243.54,274.81Z"/><path class="cls-2" d="M265.22,274.81a1,1,0,1,1-1-1A1,1,0,0,1,265.22,274.81Z"/><path class="cls-2" d="M248,274.81a1,1,0,1,1-1-1A1,1,0,0,1,248,274.81Z"/><path class="cls-2" d="M252.37,274.81a1,1,0,1,1-1-1A1,1,0,0,1,252.37,274.81Z"/><path class="cls-2" d="M261.32,274.81a1,1,0,1,1-1-1A1,1,0,0,1,261.32,274.81Z"/><path class="cls-2" d="M281.5,274.81a1,1,0,1,1-1-1A1,1,0,0,1,281.5,274.81Z"/><path class="cls-2" d="M256.78,274.81a1,1,0,1,1-1-1A1,1,0,0,1,256.78,274.81Z"/><path class="cls-2" d="M269.42,274.81a1,1,0,1,1-1-1A1,1,0,0,1,269.42,274.81Z"/><rect class="cls-2" x="201.77" y="264.3" width="17.44" height="2.68"/><rect class="cls-2" x="201.77" y="268.92" width="17.44" height="2.68"/><rect class="cls-2" x="201.77" y="273.69" width="17.44" height="2.68"/><polygon class="cls-2" points="299.71 281.54 286.4 281.58 286.4 259.81 299.71 259.77 299.71 281.54"/><rect class="cls-1" x="197.84" y="233.53" width="88.56" height="21.97"/><path class="cls-2" d="M225.88,239.46a1,1,0,1,1-1-1A1,1,0,0,1,225.88,239.46Z"/><path class="cls-2" d="M230.3,239.46a1,1,0,1,1-1-1A1,1,0,0,1,230.3,239.46Z"/><path class="cls-2" d="M234.71,239.46a1,1,0,1,1-1-1A1,1,0,0,1,234.71,239.46Z"/><path class="cls-2" d="M239.13,239.46a1,1,0,1,1-1-1A1,1,0,0,1,239.13,239.46Z"/><path class="cls-2" d="M273.33,239.46a1,1,0,1,1-1-1A1,1,0,0,1,273.33,239.46Z"/><path class="cls-2" d="M277.83,239.46a1,1,0,1,1-1-1A1,1,0,0,1,277.83,239.46Z"/><path class="cls-2" d="M243.54,239.46a1,1,0,1,1-1-1A1,1,0,0,1,243.54,239.46Z"/><path class="cls-2" d="M265.22,239.46a1,1,0,1,1-1-1A1,1,0,0,1,265.22,239.46Z"/><path class="cls-2" d="M248,239.46a1,1,0,1,1-1-1A1,1,0,0,1,248,239.46Z"/><path class="cls-2" d="M252.37,239.46a1,1,0,1,1-1-1A1,1,0,0,1,252.37,239.46Z"/><path class="cls-2" d="M261.32,239.46a1,1,0,1,1-1-1A1,1,0,0,1,261.32,239.46Z"/><path class="cls-2" d="M281.5,239.46a1,1,0,1,1-1-1A1,1,0,0,1,281.5,239.46Z"/><path class="cls-2" d="M256.78,239.46a1,1,0,1,1-1-1A1,1,0,0,1,256.78,239.46Z"/><path class="cls-2" d="M269.42,239.46a1,1,0,1,1-1-1A1,1,0,0,1,269.42,239.46Z"/><path class="cls-2" d="M279.49,244.28a1,1,0,1,1,1,1A1,1,0,0,1,279.49,244.28Z"/><path class="cls-2" d="M275.08,244.28a1,1,0,1,1,1,1A1,1,0,0,1,275.08,244.28Z"/><path class="cls-2" d="M270.67,244.28a1,1,0,1,1,1,1A1,1,0,0,1,270.67,244.28Z"/><path class="cls-2" d="M266.25,244.28a1,1,0,1,1,1,1A1,1,0,0,1,266.25,244.28Z"/><circle class="cls-2" cx="233.05" cy="244.28" r="1"/><path class="cls-2" d="M227.55,244.28a1,1,0,1,1,1,1A1,1,0,0,1,227.55,244.28Z"/><path class="cls-2" d="M261.84,244.28a1,1,0,1,1,1,1A1,1,0,0,1,261.84,244.28Z"/><circle class="cls-2" cx="241.16" cy="244.28" r="1"/><path class="cls-2" d="M257.42,244.28a1,1,0,1,1,1,1A1,1,0,0,1,257.42,244.28Z"/><path class="cls-2" d="M253,244.28a1,1,0,1,1,1,1A1,1,0,0,1,253,244.28Z"/><circle class="cls-2" cx="245.05" cy="244.28" r="1"/><circle class="cls-2" cx="224.88" cy="244.28" r="1"/><circle class="cls-2" cx="249.6" cy="244.28" r="1"/><circle class="cls-2" cx="236.96" cy="244.28" r="1"/><path class="cls-2" d="M225.88,248.57a1,1,0,1,1-1-1A1,1,0,0,1,225.88,248.57Z"/><path class="cls-2" d="M230.3,248.57a1,1,0,1,1-1-1A1,1,0,0,1,230.3,248.57Z"/><path class="cls-2" d="M234.71,248.57a1,1,0,1,1-1-1A1,1,0,0,1,234.71,248.57Z"/><path class="cls-2" d="M239.13,248.57a1,1,0,1,1-1-1A1,1,0,0,1,239.13,248.57Z"/><path class="cls-2" d="M273.33,248.57a1,1,0,1,1-1-1A1,1,0,0,1,273.33,248.57Z"/><path class="cls-2" d="M277.83,248.57a1,1,0,1,1-1-1A1,1,0,0,1,277.83,248.57Z"/><path class="cls-2" d="M243.54,248.57a1,1,0,1,1-1-1A1,1,0,0,1,243.54,248.57Z"/><path class="cls-2" d="M265.22,248.57a1,1,0,1,1-1-1A1,1,0,0,1,265.22,248.57Z"/><path class="cls-2" d="M248,248.57a1,1,0,1,1-1-1A1,1,0,0,1,248,248.57Z"/><path class="cls-2" d="M252.37,248.57a1,1,0,1,1-1-1A1,1,0,0,1,252.37,248.57Z"/><path class="cls-2" d="M261.32,248.57a1,1,0,1,1-1-1A1,1,0,0,1,261.32,248.57Z"/><path class="cls-2" d="M281.5,248.57a1,1,0,1,1-1-1A1,1,0,0,1,281.5,248.57Z"/><path class="cls-2" d="M256.78,248.57a1,1,0,1,1-1-1A1,1,0,0,1,256.78,248.57Z"/><path class="cls-2" d="M269.42,248.57a1,1,0,1,1-1-1A1,1,0,0,1,269.42,248.57Z"/><rect class="cls-2" x="201.77" y="238.05" width="17.44" height="2.68"/><rect class="cls-2" x="201.77" y="242.67" width="17.44" height="2.68"/><rect class="cls-2" x="201.77" y="247.44" width="17.44" height="2.68"/><polygon class="cls-2" points="299.71 255.29 286.4 255.33 286.4 233.56 299.71 233.53 299.71 255.29"/><rect class="cls-1" x="197.84" y="208.14" width="88.56" height="21.97"/><circle class="cls-2" cx="224.88" cy="214.07" r="1"/><path class="cls-2" d="M230.3,214.07a1,1,0,1,1-1-1A1,1,0,0,1,230.3,214.07Z"/><path class="cls-2" d="M234.71,214.07a1,1,0,1,1-1-1A1,1,0,0,1,234.71,214.07Z"/><path class="cls-2" d="M239.13,214.07a1,1,0,1,1-1-1A1,1,0,0,1,239.13,214.07Z"/><path class="cls-2" d="M273.33,214.07a1,1,0,1,1-1-1A1,1,0,0,1,273.33,214.07Z"/><path class="cls-2" d="M277.83,214.07a1,1,0,1,1-1-1A1,1,0,0,1,277.83,214.07Z"/><path class="cls-2" d="M243.54,214.07a1,1,0,1,1-1-1A1,1,0,0,1,243.54,214.07Z"/><path class="cls-2" d="M265.22,214.07a1,1,0,1,1-1-1A1,1,0,0,1,265.22,214.07Z"/><path class="cls-2" d="M248,214.07a1,1,0,1,1-1-1A1,1,0,0,1,248,214.07Z"/><path class="cls-2" d="M252.37,214.07a1,1,0,1,1-1-1A1,1,0,0,1,252.37,214.07Z"/><path class="cls-2" d="M261.32,214.07a1,1,0,1,1-1-1A1,1,0,0,1,261.32,214.07Z"/><path class="cls-2" d="M281.5,214.07a1,1,0,1,1-1-1A1,1,0,0,1,281.5,214.07Z"/><path class="cls-2" d="M256.78,214.07a1,1,0,1,1-1-1A1,1,0,0,1,256.78,214.07Z"/><path class="cls-2" d="M269.42,214.07a1,1,0,1,1-1-1A1,1,0,0,1,269.42,214.07Z"/><path class="cls-2" d="M279.49,218.89a1,1,0,1,1,1,1A1,1,0,0,1,279.49,218.89Z"/><path class="cls-2" d="M275.08,218.89a1,1,0,1,1,1,1A1,1,0,0,1,275.08,218.89Z"/><path class="cls-2" d="M270.67,218.89a1,1,0,1,1,1,1A1,1,0,0,1,270.67,218.89Z"/><path class="cls-2" d="M266.25,218.89a1,1,0,1,1,1,1A1,1,0,0,1,266.25,218.89Z"/><path class="cls-2" d="M232.05,218.89a1,1,0,1,1,1,1A1,1,0,0,1,232.05,218.89Z"/><path class="cls-2" d="M227.55,218.89a1,1,0,1,1,1,1A1,1,0,0,1,227.55,218.89Z"/><path class="cls-2" d="M261.84,218.89a1,1,0,1,1,1,1A1,1,0,0,1,261.84,218.89Z"/><path class="cls-2" d="M240.16,218.89a1,1,0,1,1,1,1A1,1,0,0,1,240.16,218.89Z"/><path class="cls-2" d="M257.42,218.89a1,1,0,1,1,1,1A1,1,0,0,1,257.42,218.89Z"/><path class="cls-2" d="M253,218.89a1,1,0,1,1,1,1A1,1,0,0,1,253,218.89Z"/><path class="cls-2" d="M244.05,218.89a1,1,0,1,1,1,1A1,1,0,0,1,244.05,218.89Z"/><path class="cls-2" d="M223.88,218.89a1,1,0,1,1,1,1A1,1,0,0,1,223.88,218.89Z"/><path class="cls-2" d="M248.6,218.89a1,1,0,1,1,1,1A1,1,0,0,1,248.6,218.89Z"/><path class="cls-2" d="M236,218.89a1,1,0,1,1,1,1A1,1,0,0,1,236,218.89Z"/><path class="cls-2" d="M225.88,223.18a1,1,0,1,1-1-1A1,1,0,0,1,225.88,223.18Z"/><path class="cls-2" d="M230.3,223.18a1,1,0,1,1-1-1A1,1,0,0,1,230.3,223.18Z"/><path class="cls-2" d="M234.71,223.18a1,1,0,1,1-1-1A1,1,0,0,1,234.71,223.18Z"/><path class="cls-2" d="M239.13,223.18a1,1,0,1,1-1-1A1,1,0,0,1,239.13,223.18Z"/><path class="cls-2" d="M273.33,223.18a1,1,0,1,1-1-1A1,1,0,0,1,273.33,223.18Z"/><path class="cls-2" d="M277.83,223.18a1,1,0,1,1-1-1A1,1,0,0,1,277.83,223.18Z"/><path class="cls-2" d="M243.54,223.18a1,1,0,1,1-1-1A1,1,0,0,1,243.54,223.18Z"/><path class="cls-2" d="M265.22,223.18a1,1,0,1,1-1-1A1,1,0,0,1,265.22,223.18Z"/><path class="cls-2" d="M248,223.18a1,1,0,1,1-1-1A1,1,0,0,1,248,223.18Z"/><path class="cls-2" d="M252.37,223.18a1,1,0,1,1-1-1A1,1,0,0,1,252.37,223.18Z"/><path class="cls-2" d="M261.32,223.18a1,1,0,1,1-1-1A1,1,0,0,1,261.32,223.18Z"/><path class="cls-2" d="M281.5,223.18a1,1,0,1,1-1-1A1,1,0,0,1,281.5,223.18Z"/><path class="cls-2" d="M256.78,223.18a1,1,0,1,1-1-1A1,1,0,0,1,256.78,223.18Z"/><path class="cls-2" d="M269.42,223.18a1,1,0,1,1-1-1A1,1,0,0,1,269.42,223.18Z"/><rect class="cls-2" x="201.77" y="212.66" width="17.44" height="2.68"/><rect class="cls-2" x="201.77" y="217.28" width="17.44" height="2.68"/><rect class="cls-2" x="201.77" y="222.05" width="17.44" height="2.68"/><polygon class="cls-2" points="299.71 229.9 286.4 229.94 286.4 208.17 299.71 208.14 299.71 229.9"/><rect class="cls-2" x="603.42" y="219.1" width="70.31" height="101.91"/><rect class="cls-1" x="599.9" y="219.1" width="70.31" height="101.91"/><rect class="cls-3" x="608.64" y="230.13" width="52.84" height="79.84"/><path class="cls-2" d="M661.48,310v-5.9c0-3.83,0-9.4-.05-16.45,0-14.07,0-34-.09-57.49l.18.18H608.68l.19-.2V310l-.15-.15,38.46.08h.12l-38.55.08h-.15V230h53.2v.17c0,23.53-.06,43.5-.08,57.61,0,7,0,12.59-.05,16.41v5.45A.49.49,0,0,1,661.48,310Z"/><path class="cls-2" d="M670.41,219.1a12.5,12.5,0,0,1-1.25,1.82c-.82,1.09-2,2.58-3.3,4.18s-2.56,3-3.48,4a12.1,12.1,0,0,1-1.54,1.58,14.22,14.22,0,0,1,1.34-1.75l3.38-4.11c1.28-1.56,2.44-3,3.39-4.11A12.41,12.41,0,0,1,670.41,219.1Z"/><path class="cls-3" d="M661.75,309.72A65.37,65.37,0,0,0,671,321.24"/><path class="cls-2" d="M671,321.24a10.55,10.55,0,0,1-1.6-1.46,50.48,50.48,0,0,1-6.54-8.18,10.59,10.59,0,0,1-1.07-1.88,14.67,14.67,0,0,1,1.29,1.73c.78,1.09,1.87,2.58,3.14,4.17s2.48,3,3.37,4A15.43,15.43,0,0,1,671,321.24Z"/><path class="cls-3" d="M599.89,320.93l9.21-11.36"/><path class="cls-2" d="M609.1,309.57a136.52,136.52,0,0,1-9.21,11.36A143.2,143.2,0,0,1,609.1,309.57Z"/><path class="cls-2" d="M599.9,219.1a61.64,61.64,0,0,1,4.47,5.34,63.24,63.24,0,0,1,4.17,5.58,63.18,63.18,0,0,1-4.47-5.34A66.33,66.33,0,0,1,599.9,219.1Z"/><rect class="cls-2" x="627.32" y="246.34" width="17.69" height="50.24"/><polygon class="cls-2" points="704.8 106.13 704.8 164.95 620.32 164.95 617.27 106.54 704.8 106.13"/><rect class="cls-3" x="617.28" y="106.55" width="84.48" height="58.28"/><path class="cls-2" d="M702.15,165.23H616.87V106.14h85.28Zm-84.48-.8h83.68V106.94H617.67Z"/><rect class="cls-3" x="626.42" y="113.78" width="66.18" height="43.8"/><path class="cls-2" d="M692.6,113.78H674.06l-47.64.1.19-.2v43.8h0l-.21-.2h66.18l-.16.16c0-13.32.06-24.25.08-31.86l0-8.82v8.71c0,7.64.05,18.6.09,32v.17H626.08v-.21h0v-44h.19l47.77.1h18.41Z"/><path class="cls-2" d="M617.27,106.38a7.27,7.27,0,0,1,1.46.94c.86.62,2,1.51,3.31,2.53s2.39,2,3.17,2.7a7,7,0,0,1,1.21,1.23,55.93,55.93,0,0,1-4.64-3.61A46.62,46.62,0,0,1,617.27,106.38Z"/><path class="cls-2" d="M701.75,106.54a41.12,41.12,0,0,1-4.44,3.79,41.82,41.82,0,0,1-4.71,3.45,41.14,41.14,0,0,1,4.45-3.78A40.9,40.9,0,0,1,701.75,106.54Z"/><path class="cls-3" d="M701.69,164.83l-9.42-7.63"/><path class="cls-2" d="M692.27,157.2a87.23,87.23,0,0,1,9.42,7.63,43,43,0,0,1-4.85-3.65A43.29,43.29,0,0,1,692.27,157.2Z"/><path class="cls-2" d="M617.27,164.83a41.3,41.3,0,0,1,4.4-3.75,41,41,0,0,1,4.66-3.42,41.3,41.3,0,0,1-4.4,3.75A39,39,0,0,1,617.27,164.83Z"/><rect class="cls-2" x="639.86" y="127.42" width="41.64" height="14.67"/><rect class="cls-2" x="65.24" y="163.55" width="76.07" height="125.91"/><rect class="cls-4" x="62.71" y="163.55" width="76.07" height="125.91"/><rect class="cls-5" x="65.95" y="166.1" width="69.59" height="120.81"/><rect class="cls-4" x="79.19" y="181.8" width="42.79" height="89.41"/><path class="cls-2" d="M79.19,239.57c-.1-8.35,7.41-16.51,15.69-17.67,3.94-.56,8.13.22,11.81-1.29,6.58-2.69,8.67-11.43,15.29-14l.31,64.63H79.19Z"/></g><g id="freepik--Floor--inject-170"><path class="cls-6" d="M706.71,456c0,.15-148.52.26-331.69.26S43.29,456.1,43.29,456s148.49-.26,331.73-.26S706.71,455.81,706.71,456Z"/></g><g id="freepik--character-3--inject-170"><path class="cls-7" d="M559.83,401.77l3.82,12a13.81,13.81,0,0,0,10.73,9.61l25.55,4.8,7-.22-7-8.61-19.2-6.54a5.17,5.17,0,0,1-3.88-3.68l-7.64-16.64-9.69,5.94Z"/><path class="cls-6" d="M541.06,322.48c3.41-2.34,9.55-1.89,13.11.2s5.39,4.88,6.08,9.75a29.86,29.86,0,0,1,.57,5.17,5.14,5.14,0,0,0,1.26,4.11c1,1,2.65,1.33,3.35,2.56a2.33,2.33,0,0,1-.87,3.18,2.35,2.35,0,0,1-1.87.19,2.26,2.26,0,0,1-1,2.77,4.25,4.25,0,0,1-3.15.27,8,8,0,0,1-5.87-7.87"/><path class="cls-6" d="M546.8,455.91c-17.55-5.81-5.51-29-5.51-29l76.71,7.2a11.1,11.1,0,0,1,11.17,11v.08h0a11.1,11.1,0,0,1-11.09,11.1l-71.25-.39"/><path class="cls-6" d="M528.85,455.89c-17.1-5.77-5.32-29-5.32-29l74.76,7.05c7.3.09,10.87,3.62,10.87,11.07h0c0,6.12-2.28,11.29-10.84,11.11l-69.47-.23"/><path class="cls-8" d="M546.2,430.81H547l2.39.1,8.8.43,29,1.59c1.41.07,2.81.19,4.19.21s2.75.08,4.09.16,2.65.18,3.93.32a14.47,14.47,0,0,1,3.74.77,9.22,9.22,0,0,1,3.11,2,8.11,8.11,0,0,1,1.88,3,14.68,14.68,0,0,1,.77,3.27,22.81,22.81,0,0,1,.21,3.09,13.28,13.28,0,0,1-1,5.21,8.54,8.54,0,0,1-2.32,3.16,6.36,6.36,0,0,1-2.12,1.2c-.53.17-.54.11,0-.08a6.46,6.46,0,0,0,2-1.24,8.72,8.72,0,0,0,2.23-3.14,13.1,13.1,0,0,0,.91-5.11,23.17,23.17,0,0,0-.23-3,15.15,15.15,0,0,0-.77-3.19,8,8,0,0,0-1.82-2.89,8.75,8.75,0,0,0-3-1.9,13.44,13.44,0,0,0-3.66-.73c-1.27-.14-2.58-.23-3.92-.31s-2.69-.13-4.06-.15-2.79-.14-4.2-.21l-29-1.71-8.79-.57-2.4-.19h-.62Z"/><path class="cls-8" d="M529.32,438.13a1.74,1.74,0,0,0,.61.3,6.21,6.21,0,0,0,1.81.37,7.08,7.08,0,0,0,7.62-6.5,7.94,7.94,0,0,0,0-1.29,6.54,6.54,0,0,0-.41-1.8,1.93,1.93,0,0,0-.32-.6,12.42,12.42,0,0,1,.44,2.42,7,7,0,0,1-6.5,7.47,7.09,7.09,0,0,1-.8,0A11.72,11.72,0,0,1,529.32,438.13Z"/><path class="cls-9" d="M551.83,363.91c9.52,1.07,11.06,7.53,15.5,13.89l6.41,11.84L562,396.87l.4,18.17,4.83,16.08-44.43-2.51,5.48-19L521.78,390a36.15,36.15,0,0,1,.76-12c3.27-11.58,11.15-12.89,18.14-14.71a46.07,46.07,0,0,1,9.61-.05"/><g class="cls-10"><path d="M528,403.76a90.25,90.25,0,0,0,3.27,11.39,25.05,25.05,0,0,0,3.59,6.58,16.69,16.69,0,0,0,8.6,5.24,27,27,0,0,0,10.17.5l-16.9-9.54-4.49-15.62Z"/></g><path class="cls-6" d="M562.34,414.54a7,7,0,0,1-.12-1.29c0-.9-.1-2.09-.17-3.52-.12-3-.27-7.08-.41-11.62s-.24-8.65-.29-11.63V383a7.06,7.06,0,0,1,0-1.3,7,7,0,0,1,.12,1.29c0,.9.1,2.09.17,3.52.13,3,.27,7.09.41,11.63s.24,8.65.29,11.62v3.53A7,7,0,0,1,562.34,414.54Z"/><path class="cls-6" d="M522.54,389.86a1.06,1.06,0,0,1,.09.25l.25.75c.22.67.52,1.64.91,2.86L527,404.09l-.15-.07,19.75-7.29.5-.2-.09.16a87.72,87.72,0,0,0-4.62-13,36.77,36.77,0,0,0-5.87-9.52,12.83,12.83,0,0,0-3.32-2.68,6.64,6.64,0,0,0-3.07-.91,3.32,3.32,0,0,0-.63,0l-.55.06a1.42,1.42,0,0,0-.47.05l-.38.11-.51.13h-.18l.17-.07.51-.16.38-.11a2.42,2.42,0,0,1,.47-.07l.56-.08h.63a6.92,6.92,0,0,1,3.14.88,13,13,0,0,1,3.39,2.69,36.1,36.1,0,0,1,6,9.55,84.64,84.64,0,0,1,4.67,13v.12h-.12l-.49.21c-7.4,2.77-14.26,5.23-19.78,7.24h-.11V404c-1.3-4.33-2.38-7.9-3.13-10.4-.37-1.23-.65-2.2-.85-2.88-.09-.32-.17-.57-.22-.76Z"/><path class="cls-7" d="M529.82,403.19l4.27,13.33a13.88,13.88,0,0,0,10.74,9.74l25.55,4.86,7-.23L575,425l-23.79-9.41a5.16,5.16,0,0,1-3.87-3.73l-3.56-13.72Z"/><polygon class="cls-8" points="552.56 431.3 552.78 429.64 572.41 428.87 582.04 404.58 618.73 407.07 606.35 434.03 552.56 431.3"/><path class="cls-3" d="M596.48,420.34a1.92,1.92,0,1,1-.6-2.66,1.92,1.92,0,0,1,.6,2.66Z"/><path class="cls-6" d="M548.38,323.62c-12.12-5.83-18.23,2.4-20.11,7.83-.35,1-.59,2.07-1,3.05a4.59,4.59,0,0,1-2.12,2.35c-.72.32-1.54.36-2.28.63a4.15,4.15,0,0,0-2.52,2.92,5,5,0,0,0,.68,3.84,4,4,0,0,1,.86,1.79,4.71,4.71,0,0,1-.28,1.33,3.64,3.64,0,0,0,6,3.55,5.1,5.1,0,0,0,2.21,2.77c1.09.52,2.69.05,2.92-1.13a2.87,2.87,0,0,0,5.46-1"/><path class="cls-7" d="M538.09,329.49a2.58,2.58,0,0,0-2.3,2.61h0l1.46,34.69c.06,4.1,6,6.41,10.42,6.32h0c4.43-.09,4.58-2.27,4.65-6.16.1-6.52.1-9,.1-8.92s5.6-.93,6.76-8.23c.58-3.64.39-9.59.09-14.46-.28-4.38-3.18-9.75-7.55-9.29Z"/><path class="cls-6" d="M557.37,340.07a.92.92,0,0,1-.9.94.91.91,0,0,1-1-.79v-.05a.93.93,0,0,1,.9-.95.91.91,0,0,1,1,.79Z"/><path class="cls-6" d="M558,338.44c-.12.12-.83-.4-1.84-.4s-1.74.51-1.85.38.06-.27.38-.51a2.65,2.65,0,0,1,1.49-.46,2.46,2.46,0,0,1,1.46.48A.84.84,0,0,1,558,338.44Z"/><path class="cls-6" d="M547.52,340.07a.93.93,0,0,1-.91.94.88.88,0,0,1-1-.77.17.17,0,0,1,0-.07.93.93,0,0,1,.9-.95.9.9,0,0,1,1,.78A.17.17,0,0,1,547.52,340.07Z"/><path class="cls-6" d="M548.07,338.63c-.12.12-.83-.41-1.83-.4s-1.75.5-1.86.38.06-.27.39-.51a2.56,2.56,0,0,1,2.94,0C548,338.35,548.13,338.57,548.07,338.63Z"/><path class="cls-6" d="M551.73,346.1a7,7,0,0,1,1.63-.29c.26,0,.5-.08.55-.26a1.35,1.35,0,0,0-.17-.76c-.25-.62-.5-1.28-.76-2a31.83,31.83,0,0,1-1.71-5.13,33.73,33.73,0,0,1,2.11,5c.26.69.5,1.34.73,2a1.51,1.51,0,0,1,.14,1,.7.7,0,0,1-.43.38,1.54,1.54,0,0,1-.43.06A6.59,6.59,0,0,1,551.73,346.1Z"/><path class="cls-11" d="M552.42,358a18.68,18.68,0,0,1-9.78-2.61s2.38,5,9.68,4.33Z"/><path class="cls-9" d="M551.3,348.53a1.82,1.82,0,0,0-1.63-.67,1.64,1.64,0,0,0-1.14.61,1,1,0,0,0-.08,1.2,1.23,1.23,0,0,0,1.32.34,4.13,4.13,0,0,0,1.29-.77,1.18,1.18,0,0,0,.29-.3.37.37,0,0,0,0-.38"/><path class="cls-6" d="M548.76,346.8c.16,0,.17,1.08,1.1,1.86s2.1.66,2.11.81-.26.21-.75.22a2.68,2.68,0,0,1-1.76-.61,2.35,2.35,0,0,1-.85-1.56C548.56,347.06,548.69,346.79,548.76,346.8Z"/><path class="cls-6" d="M548.52,336.86c-.1.28-1.1.15-2.29.29s-2.13.46-2.29.22.1-.38.48-.64a3.82,3.82,0,0,1,1.7-.6,3.9,3.9,0,0,1,1.79.21C548.35,336.52,548.57,336.73,548.52,336.86Z"/><path class="cls-6" d="M557.61,335.52c-.18.23-.88,0-1.71,0s-1.54.16-1.71-.08,0-.35.35-.56a2.36,2.36,0,0,1,1.39-.38,2.39,2.39,0,0,1,1.36.46C557.59,335.18,557.68,335.41,557.61,335.52Z"/><path class="cls-7" d="M536.6,341.17a1.83,1.83,0,0,0-1.91.1,3.39,3.39,0,0,0,2.14,6.29"/><path class="cls-6" d="M548.08,323.61a14.83,14.83,0,0,1,7,2.18,10.14,10.14,0,0,1,5,5.95,2.06,2.06,0,0,1-.06,1.65,1.62,1.62,0,0,1-2,.43,4.88,4.88,0,0,1-1.63-1.5,3.12,3.12,0,0,1-6.06-.07,2.75,2.75,0,0,1-2.82,2.51,3.63,3.63,0,0,1-3.11-2.45,9.3,9.3,0,0,1-1.28,3.56,3.13,3.13,0,0,1-3.31,1.35,6.43,6.43,0,0,1,0,3.26,2.21,2.21,0,0,1-2.57,1.51c-1-.34-1.41-1.54-1.64-2.58a24.37,24.37,0,0,1-.79-6.13,9.91,9.91,0,0,1,1.89-5.78,9.75,9.75,0,0,1,5.35-3.3,23.39,23.39,0,0,1,6.35-.58"/><path class="cls-11" d="M536.09,345.38c0-.05-.28.06-.63-.1a1.26,1.26,0,0,1-.63-1.25,1.29,1.29,0,0,1,.78-1.17c.36-.15.63-.08.65-.13s-.25-.23-.73-.13a1.48,1.48,0,0,0-.72.45,1.74,1.74,0,0,0-.36,1,1.44,1.44,0,0,0,.92,1.52C535.86,345.66,536.13,345.41,536.09,345.38Z"/><path class="cls-9" d="M556.87,324.47a19,19,0,0,0-4.46-1.61,14.33,14.33,0,0,0-5.1-.1,13.1,13.1,0,0,0-9.79,7,14.43,14.43,0,0,0-1.54,4.87,19.78,19.78,0,0,0,.1,4.74,4.93,4.93,0,0,1-.34-1.25,12.65,12.65,0,0,1-.13-3.53,14.42,14.42,0,0,1,1.48-5,13.23,13.23,0,0,1,10.14-7.29,14.54,14.54,0,0,1,5.26.2,13.12,13.12,0,0,1,3.31,1.25A4.28,4.28,0,0,1,556.87,324.47Z"/><path class="cls-5" d="M545.63,392a18.53,18.53,0,0,1-3,1c-1.86.54-4.43,1.29-7.24,2.2s-5.34,1.8-7.17,2.45a21.11,21.11,0,0,1-3,1,18.53,18.53,0,0,1,2.86-1.32c1.8-.74,4.31-1.69,7.14-2.6s5.42-1.61,7.31-2.07A18.2,18.2,0,0,1,545.63,392Z"/><path class="cls-5" d="M543.75,387.11c0,.14-4.38,1.93-9.89,4a106.64,106.64,0,0,1-10.08,3.52,102,102,0,0,1,9.9-4C539.2,388.56,543.7,387,543.75,387.11Z"/><path class="cls-5" d="M567.43,379c0,.14-5.14,2-11.58,4.24s-11.7,3.89-11.75,3.75,5.14-2,11.58-4.24S567.38,378.89,567.43,379Z"/><path class="cls-5" d="M561,386.93a60.78,60.78,0,0,1-7.29,2.72,57,57,0,0,1-7.45,2.24,55.43,55.43,0,0,1,7.28-2.73A57.09,57.09,0,0,1,561,386.93Z"/><path class="cls-5" d="M569.55,383.17a17,17,0,0,1-3.68,1.94,16.37,16.37,0,0,1-3.9,1.46A32.87,32.87,0,0,1,569.55,383.17Z"/></g><g id="freepik--character-2--inject-170"><path class="cls-8" d="M435.22,432,385,429c-.31-.71-.53-1.13-.53-1.13l-13.59.31-4.43-.26s-.07.13-.17.36l-45.64,1c-9.1,0-18.66,5.6-18.64,12.7-.09,6.75,3.2,14.07,11.35,13.88l62.19-.37h62.19c8.15.14,10.29-4.78,10.29-10.61C449,434.12,442.17,432.05,435.22,432Z"/><path class="cls-6" d="M319.1,455.92h4.56l12.52-.08,41.75-.17-.17.19c-.09-1.37-.19-2.83-.28-4.3-.2-3-.39-6-.57-8.78l.15.16-38.47-4.17-11.41-1.28-3.07-.36-.79-.1h0l.8.07,3.08.3,11.41,1.17,38.49,4.06h.15v.15c.18,2.81.37,5.77.57,8.78.09,1.47.19,2.93.28,4.29V456h-.19l-41.75.06H319.38Z"/><path class="cls-6" d="M331.87,438.05s-.66-.46-1.76-1.12a18.78,18.78,0,0,0-4.57-2,19.2,19.2,0,0,0-4.94-.71,14.44,14.44,0,0,1-2.09,0,2.59,2.59,0,0,1,.55-.13,13.15,13.15,0,0,1,1.54-.14,16.61,16.61,0,0,1,9.61,2.75,11,11,0,0,1,1.23.93C331.74,437.89,331.89,438,331.87,438.05Z"/><path class="cls-6" d="M431.33,435.11c0,.1-9.86,2.51-22.08,5.4s-22.14,5.16-22.17,5.07,9.87-2.52,22.09-5.41S431.31,435,431.33,435.11Z"/><path class="cls-6" d="M423,434.17a19.22,19.22,0,0,0-3.88,1.86,19.49,19.49,0,0,0-3.12,3,3.35,3.35,0,0,1,.67-1.1,10.68,10.68,0,0,1,2.27-2.13,10.38,10.38,0,0,1,2.81-1.34A3.37,3.37,0,0,1,423,434.17Z"/><polygon class="cls-12" points="377.33 444.1 386.7 445.38 386.72 455.56 378.11 455.37 377.33 444.1"/><path class="cls-9" d="M386.7,445.38h4.21a4.64,4.64,0,0,1,2.33.62l2.23,1.28a34.4,34.4,0,0,0,3.88,1.84c2.57.81,6.88,1.91,7.79,2.61,2.59,2,1.81,4.35.39,4.6-1.25.22-20.81-.76-20.81-.76Z"/><path class="cls-6" d="M393.64,454.7a6.46,6.46,0,0,1-.46-2.64,6.71,6.71,0,0,1,.29-2.67,23.57,23.57,0,0,1,.06,2.66A26.09,26.09,0,0,1,393.64,454.7Z"/><path class="cls-6" d="M395.64,454.64a8.28,8.28,0,0,1-.16-2.43,9,9,0,0,1,.18-2.43,8.64,8.64,0,0,1,.17,2.43A9,9,0,0,1,395.64,454.64Z"/><path class="cls-6" d="M398,455a17.5,17.5,0,0,1-.4-5,9.56,9.56,0,0,1,.37,2.49A8.8,8.8,0,0,1,398,455Z"/><path class="cls-6" d="M391.81,452a3.19,3.19,0,0,1-.86-.27,7.87,7.87,0,0,1-2.11-1.29c-.2-.18-.4-.36-.61-.57a2.13,2.13,0,0,1-.53-.76,1,1,0,0,1,.11-1,.76.76,0,0,1,.52-.29,1.37,1.37,0,0,1,.57.06,4.2,4.2,0,0,1,.9,7.46,2.81,2.81,0,0,1-1,.44,1.28,1.28,0,0,1-.55,0,.75.75,0,0,1-.43-.37,1.08,1.08,0,0,1,.12-1,3.39,3.39,0,0,1,.54-.66,6.64,6.64,0,0,1,2.07-1.36,3.33,3.33,0,0,1,.87-.25s-.3.13-.81.38a6.8,6.8,0,0,0-1.95,1.41,2.81,2.81,0,0,0-.48.61.85.85,0,0,0-.1.71.59.59,0,0,0,.66.22,2.18,2.18,0,0,0,.84-.4,3.89,3.89,0,0,0,1.06-5.4,3.82,3.82,0,0,0-1.88-1.48.67.67,0,0,0-.75.11.75.75,0,0,0-.08.75,4.14,4.14,0,0,0,1,1.24A11.19,11.19,0,0,0,391.81,452Z"/><path class="cls-6" d="M407.53,456.32a2.25,2.25,0,0,0,.51-.64,2.38,2.38,0,0,0-.28-2.12,4.7,4.7,0,0,0-2.61-2c-1.19-.42-2.61-.62-4-1.07a28.45,28.45,0,0,1-7-3.15,20.86,20.86,0,0,1-1.9-1.33,3.78,3.78,0,0,1-.64-.56,3.35,3.35,0,0,1,.72.45c.45.3,1.11.74,1.95,1.23a30.73,30.73,0,0,0,6.94,3c1.41.43,2.81.64,4,1.1a4.91,4.91,0,0,1,2.72,2.14,2.5,2.5,0,0,1,.18,2.3,1.32,1.32,0,0,1-.43.48C407.61,456.3,407.54,456.33,407.53,456.32Z"/><path class="cls-6" d="M366.82,321.8c-2.9,1.13-6.2,5.55-6.78,8.61-.52,2.69.18,5.45.54,8.18s.28,5.76-1.48,7.87c-1.1,1.31-2.7,2.07-4,3.19a9.38,9.38,0,0,0-.93,13.23l0,0a4.93,4.93,0,0,0-3.58,4.94,7.4,7.4,0,0,0,3.21,5.52,15.26,15.26,0,0,0,6.13,2.35,13.14,13.14,0,0,0,6.9-.19c2.57-.94,4.47-3.07,6.53-4.87,2.51-2.21,5.44-4.07,7.24-6.88,2.1-3.28,2.38-7.38,2.36-11.28a97.71,97.71,0,0,0-3-23.65"/><path class="cls-12" d="M404.13,376.8l16,27.62a11.76,11.76,0,0,1,.35,11.11h0a11.74,11.74,0,0,1-10.83,6.52l-24.4-.62-.67-8.87L406,408.38l-14.55-25Z"/><path class="cls-12" d="M345,424.3l22.45,5.88.47-6.73L347.25,411.5l15-28.08L349.58,377l-15.81,27.7h0a13,13,0,0,0,5.4,17.57,11.73,11.73,0,0,0,2.13.9Z"/><path class="cls-9" d="M397.43,394.58l15.32-8.12a78.86,78.86,0,0,0-6.6-10.94,33.65,33.65,0,0,0-20.52-12.85h0l-17.64.25a23.44,23.44,0,0,0-6.28,1.47v-.07c-9.57,2.14-20.14,23.05-20.14,23.05l14,7.31.31,2.19a15,15,0,0,0,3.66,7.81l-4,26.74,45.29.82L395,413.11Z"/><path class="cls-6" d="M359.94,404.83a4.74,4.74,0,0,1-.67-.51,10.13,10.13,0,0,1-1.55-1.72,11.27,11.27,0,0,1-1.91-7.28,23.71,23.71,0,0,1,1-4.07c.4-1.22.81-2.3,1.17-3.2s.66-1.62.88-2.12a3.83,3.83,0,0,1,.39-.75,4.67,4.67,0,0,1-.26.8l-.78,2.16c-.33.91-.71,2-1.1,3.21a26,26,0,0,0-1,4,11.55,11.55,0,0,0,.39,4,10.62,10.62,0,0,0,1.38,3A19.9,19.9,0,0,0,359.94,404.83Z"/><path class="cls-5" d="M361.28,381.52a27.89,27.89,0,0,1-4.38-5.88,25.57,25.57,0,0,1,4.34,5.88Z"/><path class="cls-5" d="M368.62,369.15a10.32,10.32,0,0,1-2.66,1.78,9.7,9.7,0,0,1-2.91,1.32,10.32,10.32,0,0,1,2.66-1.78A10.07,10.07,0,0,1,368.62,369.15Z"/><path class="cls-5" d="M350.93,386.77a8.89,8.89,0,0,1,0-3,8.08,8.08,0,0,1,.49-2.92,8.89,8.89,0,0,1,0,3A8.33,8.33,0,0,1,350.93,386.77Z"/><path class="cls-5" d="M367.23,392.55a9.45,9.45,0,0,1-2.54,1.71,9.27,9.27,0,0,1-2.79,1.27,8.77,8.77,0,0,1,2.54-1.72A9,9,0,0,1,367.23,392.55Z"/><path class="cls-5" d="M372.56,380.35a9.22,9.22,0,0,1-1.77,2.39c-1.08,1.22-2.05,2.14-2.16,2a9.22,9.22,0,0,1,1.77-2.39C371.48,381.17,372.45,380.25,372.56,380.35Z"/><path class="cls-5" d="M383.15,384a15.41,15.41,0,0,1-3.28-4.63,8.32,8.32,0,0,1,1.85,2.16A8.48,8.48,0,0,1,383.15,384Z"/><path class="cls-5" d="M377.59,395.44a23.6,23.6,0,0,1-.68-7,12.32,12.32,0,0,1,.6,3.46A12,12,0,0,1,377.59,395.44Z"/><path class="cls-5" d="M373.28,405.34a9.74,9.74,0,0,1-1.78-2.58,9.94,9.94,0,0,1-1.32-2.84A9.35,9.35,0,0,1,372,402.5,9.57,9.57,0,0,1,373.28,405.34Z"/><path class="cls-5" d="M387.36,399.63a20,20,0,0,1-3.93,5.08A20,20,0,0,1,387.36,399.63Z"/><path class="cls-5" d="M393.39,393.89a8.36,8.36,0,0,1-3.23-1.79,8.21,8.21,0,0,1-2.51-2.7,33.05,33.05,0,0,1,2.84,2.29A34.52,34.52,0,0,1,393.39,393.89Z"/><path class="cls-5" d="M403.15,385.72a11.67,11.67,0,0,1-3.48.35,11.36,11.36,0,0,1-3.49-.18,12.36,12.36,0,0,1,3.48-.34A12,12,0,0,1,403.15,385.72Z"/><g class="cls-10"><path d="M405.6,373.17a9,9,0,0,1-13.88,11.25,6.54,6.54,0,0,0-1.58-1.34,7,7,0,0,0-1.92-.4,7,7,0,0,1-4.57-10.88Z"/></g><polygon class="cls-6" points="353.24 437.88 350.61 408.08 405.78 407.93 402.2 438.12 353.24 437.88"/><path class="cls-5" d="M381.75,423.89a3.52,3.52,0,1,1-3.54-3.5h0A3.52,3.52,0,0,1,381.75,423.89Z"/><path class="cls-12" d="M379.12,373.25a8.63,8.63,0,0,0,8.43-8.51l.4-34.26h0a2.74,2.74,0,0,0-2.44-2.77L371,324.05c-4.63-.49-7.71,5.22-8,9.87-.33,5.17-.52,11.49.09,15.34,1.23,7.76,7.17,8.74,7.17,8.74v6.68a8.62,8.62,0,0,0,8.67,8.57h.19Z"/><path class="cls-6" d="M366,338.94a1,1,0,1,0,1-.89A1,1,0,0,0,366,338.94Z"/><path class="cls-6" d="M364.4,337.21c.12.13.87-.43,1.94-.43s1.86.54,2,.41-.07-.29-.41-.54a2.75,2.75,0,0,0-1.57-.49,2.68,2.68,0,0,0-1.55.5C364.45,336.92,364.34,337.15,364.4,337.21Z"/><path class="cls-6" d="M376.21,338.94a1,1,0,0,0,1,1,.94.94,0,0,0,1-.88h0a1,1,0,0,0-2-.11Z"/><path class="cls-6" d="M374.91,337.41c.13.13.88-.43,1.95-.43s1.85.54,2,.41-.07-.29-.41-.54a2.78,2.78,0,0,0-1.58-.49,2.68,2.68,0,0,0-1.55.5C375,337.12,374.85,337.35,374.91,337.41Z"/><path class="cls-6" d="M371,345.34a7.39,7.39,0,0,0-1.74-.31c-.27,0-.53-.08-.57-.27a1.35,1.35,0,0,1,.18-.81c.25-.66.52-1.35.81-2.08a35.78,35.78,0,0,0,1.81-5.44,35,35,0,0,0-2.25,5.28l-.77,2.09a1.61,1.61,0,0,0-.14,1.08.69.69,0,0,0,.45.4,1.76,1.76,0,0,0,.46.06A6.48,6.48,0,0,0,371,345.34Z"/><path class="cls-13" d="M370.29,358a19.65,19.65,0,0,0,10.38-2.77s-2.51,5.33-10.27,4.6Z"/><path class="cls-13" d="M371.48,347.92a1.92,1.92,0,0,1,1.73-.71,1.77,1.77,0,0,1,1.22.65,1.1,1.1,0,0,1,.08,1.27,1.29,1.29,0,0,1-1.4.36,4.07,4.07,0,0,1-1.37-.82,1.14,1.14,0,0,1-.3-.32.32.32,0,0,1,0-.39"/><path class="cls-6" d="M374.18,346.08c-.17,0-.18,1.15-1.17,2s-2.23.7-2.24.86.28.22.8.24a2.9,2.9,0,0,0,1.87-.65,2.57,2.57,0,0,0,.9-1.66C374.39,346.36,374.26,346.08,374.18,346.08Z"/><path class="cls-6" d="M374.43,335.53c.11.3,1.18.16,2.43.31s2.27.49,2.44.23-.1-.4-.51-.68a4,4,0,0,0-1.81-.63,4.24,4.24,0,0,0-1.9.22C374.62,335.17,374.39,335.4,374.43,335.53Z"/><path class="cls-6" d="M364.55,335.23c.18.25.92,0,1.81,0s1.63.17,1.81-.09-.05-.36-.37-.59a2.58,2.58,0,0,0-1.48-.4,2.5,2.5,0,0,0-1.44.49C364.57,334.87,364.46,335.12,364.55,335.23Z"/><path class="cls-6" d="M406.71,369.84c-1.43-2.46-4.64-4.1-4.62-6.95,0-1.74,1.32-3.26,1.4-5,.16-3.48-4.31-5.31-5.51-8.58-1.09-3,.79-6.31.12-9.41-.81-3.78-4.23-5.28-7.05-7.83a13.13,13.13,0,0,1-2.88-3.93c-.1-.18-.19-.36-.3-.53a12.21,12.21,0,0,0-9-5.82,19.09,19.09,0,0,0-10.46-.51,9.48,9.48,0,0,0-4.89,2.75,5.76,5.76,0,0,0-1.35,5.29,4.15,4.15,0,0,0,4.29,3c1.43-.19,2.8-1.25,4.18-.83s2,2,3.36,2.24,2.5-.94,3.84-1.06,2.76,1.09,3.42,2.42a13.59,13.59,0,0,1,.64,1.64c1.1,5.48,3.2,8,1.74,11.2-.78,1.71-2.11,3.23-2.32,5.09-.47,4.28,5.09,7.4,4.78,11.69-.13,1.83-1.32,3.38-2,5.09a8.93,8.93,0,0,0,3,10.08,6,6,0,0,0,5.46,1,4.11,4.11,0,0,0,.6-.28,8,8,0,0,0,3.62,1.94c3.29.7,6.73-1.16,8.74-3.86C407.5,376.16,408.3,372.56,406.71,369.84Z"/><path class="cls-8" d="M393.31,380.65a10.89,10.89,0,0,0,2.72-.91,8.75,8.75,0,0,0,2.6-2.08,7.85,7.85,0,0,0,1.86-3.93,8.34,8.34,0,0,0-.92-5.16,8.52,8.52,0,0,0-4.53-3.91,7.85,7.85,0,0,1-2.93-1.85,4.26,4.26,0,0,1-.87-3.52,11,11,0,0,1,1.3-3.5,19.89,19.89,0,0,0,1.6-3.36,4.86,4.86,0,0,0-.09-3.5,9.86,9.86,0,0,0-2.08-2.88c-.82-.87-1.68-1.68-2.43-2.6a11.76,11.76,0,0,1-1.76-2.95,28.53,28.53,0,0,1-1.63-6.09,41.83,41.83,0,0,0-1.19-5.3,10.83,10.83,0,0,0-4.44-6.22,8.54,8.54,0,0,0-2.67-1H378a3.43,3.43,0,0,1,.56.08,6.22,6.22,0,0,1,2,.76,9,9,0,0,1,2.58,2.25,12.88,12.88,0,0,1,2.1,4,40.61,40.61,0,0,1,1.26,5.34,29.81,29.81,0,0,0,1.65,6,11.67,11.67,0,0,0,1.71,2.83c.72.87,1.58,1.68,2.41,2.55a10.41,10.41,0,0,1,2.18,3,5.41,5.41,0,0,1,.12,3.86c-.83,2.5-2.58,4.43-2.89,6.77a3.79,3.79,0,0,0,.74,3.13,7.57,7.57,0,0,0,2.75,1.74,9.65,9.65,0,0,1,2.8,1.69,8.75,8.75,0,0,1,2.81,7.87,8.14,8.14,0,0,1-2,4.07,8.64,8.64,0,0,1-2.73,2.06,7.51,7.51,0,0,1-2.06.66c-.25.05-.44.05-.56.07S393.31,380.66,393.31,380.65Z"/></g><g id="freepik--character-1--inject-170"><path class="cls-9" d="M105,447.13l1.45-2.22,12.47,7.89L116,457.73l-.82-.41c-3.62-1.85-18.3-9.65-20.24-11.73C92.74,443.27,105,447.13,105,447.13Z"/><g class="cls-14"><path class="cls-3" d="M111.41,454.94a5.22,5.22,0,0,1,3.16-1.9,4.33,4.33,0,0,1,3.62,1l-2.13,3.54Z"/></g><g class="cls-14"><path class="cls-3" d="M98.89,445.43s-4.43-1.11-4.32-.21,14.65,9.34,21.39,12.51l.15-.3-17-9.7S99.61,445.89,98.89,445.43Z"/></g><path class="cls-6" d="M116.31,457.54l-.23-.11-.65-.32-2.37-1.25c-2-1.06-4.74-2.57-7.72-4.3s-5.66-3.36-7.58-4.56l-2.26-1.44-.6-.4-.21-.15a1,1,0,0,1,.23.12l.62.37,2.29,1.39c1.93,1.18,4.61,2.78,7.6,4.52s5.71,3.25,7.69,4.34l2.34,1.3.64.35C116.24,457.49,116.32,457.53,116.31,457.54Z"/><path class="cls-6" d="M99,447.93a6.21,6.21,0,0,0,.21-1.36,6,6,0,0,0-.27-1.34,2,2,0,0,1,.45,1.34A2,2,0,0,1,99,447.93Z"/><path class="cls-6" d="M103.82,448.2a1.48,1.48,0,0,1-.12-.72,1.51,1.51,0,0,1,.06-.73,1.48,1.48,0,0,1,.12.72A1.65,1.65,0,0,1,103.82,448.2Z"/><path class="cls-6" d="M105.16,448.25a2,2,0,0,1-.27-.56,1.17,1.17,0,0,1-.11-.61,2.22,2.22,0,0,1,.28.56C105.17,448,105.21,448.24,105.16,448.25Z"/><path class="cls-6" d="M106.51,447.43a1.8,1.8,0,0,1-.71-.3c-.37-.21-.65-.41-.63-.46a1.9,1.9,0,0,1,.72.3C106.26,447.18,106.54,447.39,106.51,447.43Z"/><path class="cls-6" d="M107.23,446.71a1.48,1.48,0,0,1-.87-.21c-.45-.22-.73-.51-.7-.55a5.68,5.68,0,0,1,.78.39A4.73,4.73,0,0,1,107.23,446.71Z"/><path class="cls-6" d="M104,446.84a2.6,2.6,0,0,1-.82-.48,6.31,6.31,0,0,1-.76-.7,3.5,3.5,0,0,1-.37-.49.51.51,0,0,1-.06-.38.35.35,0,0,1,.31-.25,1.74,1.74,0,0,1,1.61,1.52,1.67,1.67,0,0,1-.06.7.25.25,0,0,1-.1.23,2.78,2.78,0,0,0,0-.91,1.76,1.76,0,0,0-.43-.86,1.39,1.39,0,0,0-1-.5c-.18,0-.22.2-.13.37a3.1,3.1,0,0,0,.35.46,6,6,0,0,0,.71.71C103.73,446.63,104,446.81,104,446.84Z"/><path class="cls-6" d="M103.79,446.76a1,1,0,0,1,.24-.63,1.42,1.42,0,0,1,.57-.46,1,1,0,0,1,.92,0,.39.39,0,0,1,0,.53,1.17,1.17,0,0,1-.35.28,2.68,2.68,0,0,1-.68.27,1.24,1.24,0,0,1-.66.06,1.57,1.57,0,0,0,.62-.18,3,3,0,0,0,.63-.29c.22-.11.47-.37.29-.53a.81.81,0,0,0-.74,0,1.5,1.5,0,0,0-.54.39A3,3,0,0,0,103.79,446.76Z"/><path class="cls-6" d="M118.08,453.9a6,6,0,0,0-1-.51,4.58,4.58,0,0,0-4.88.72c-.51.43-.75.79-.77.77s0-.1.15-.26a3.35,3.35,0,0,1,.53-.6,4.5,4.5,0,0,1,5-.75,5,5,0,0,1,.69.43A1.1,1.1,0,0,1,118.08,453.9Z"/><path class="cls-6" d="M110.52,452.77a8.18,8.18,0,0,1-2-.9,8.31,8.31,0,0,1-1.78-1.23s.83.5,1.87,1.08S110.54,452.72,110.52,452.77Z"/><path class="cls-6" d="M113,454.21c0,.05-.17.14-.36.28s-.34.29-.39.26,0-.24.28-.4S113,454.17,113,454.21Z"/><path class="cls-6" d="M114.64,453.59c0,.05-.14.13-.35.19s-.39.06-.41,0,.15-.14.36-.19S114.63,453.54,114.64,453.59Z"/><path class="cls-6" d="M116.3,453.84l-.43-.11c-.23-.05-.42,0-.43-.07s.19-.16.47-.1S116.33,453.81,116.3,453.84Z"/><path class="cls-6" d="M117.4,454.14c0,.05-.12.07-.24.05s-.23-.07-.23-.12.12-.07.25-.05S117.41,454.09,117.4,454.14Z"/><path class="cls-6" d="M209.38,437.74l-49.81-47a16.38,16.38,0,0,0-11.71-4.93h0a16.38,16.38,0,0,0-14.21,8.25l-29.86,49.49L122,454.75,148.88,416l24.59,22.22Z"/><path class="cls-6" d="M224,440.09c.21.63,1.69,16.68-19.85,16.68h-57.5a13.18,13.18,0,0,1-13.18-13.18h0a13.19,13.19,0,0,1,13.18-13.19h53.58a13.14,13.14,0,0,1,5.55,1.23Z"/><path class="cls-8" d="M141.57,430.39c0,.13,11.88.24,26.54.24s26.54-.11,26.54-.24-11.88-.23-26.54-.23S141.57,430.27,141.57,430.39Z"/><path class="cls-8" d="M150.45,405c-.14,0-.14,2.49-.6,5.51s-1.15,5.41-1,5.45a17.62,17.62,0,0,0,1.47-5.38A17.14,17.14,0,0,0,150.45,405Z"/><path class="cls-8" d="M148,404.66a34.88,34.88,0,0,0,1,11.24c.13,0-.22-2.52-.48-5.62A53.13,53.13,0,0,0,148,404.66Z"/><path class="cls-6" d="M192.62,334a1.67,1.67,0,0,0,2.7,1.5c1-.76.83-2.29.38-3.45s-1.11-2.37-.82-3.58a8.57,8.57,0,0,1,1.47-2.42,5.39,5.39,0,0,0,.59-4.76,4.51,4.51,0,0,0-3.72-2.89c-1.69-.13-3.56.74-5-.18-1-.67-1.35-2-2.21-2.91-1.34-1.35-3.58-1.17-5.39-.56s-3.57,1.58-5.47,1.48c-1.59-.08-3-.9-4.59-1.27a8.34,8.34,0,0,0-8.46,13.31c.77,1,2.52,3.86,6,3.14"/><path class="cls-7" d="M190.64,320.91l.47,2.5,7.23,37.3c.84,4.33-2.22,8.5-6.86,9.37h0c-4.69.87-9.24-2-10.16-6.32-1-4.58-2.06-9.38-2.06-9.38s-6.11.25-8.93-7.2c-1.4-3.7-2.51-10-3.25-15.21a8.3,8.3,0,0,1,7-9.41l.37,0Z"/><path class="cls-6" d="M170.05,337a1,1,0,1,0,.84-1.1A1,1,0,0,0,170.05,337Z"/><path class="cls-6" d="M169.12,335c.14.1.78-.61,1.84-.83s1.95.16,2,0-.13-.27-.52-.45a2.7,2.7,0,0,0-1.66-.16,2.62,2.62,0,0,0-1.44.82C169.11,334.65,169,334.9,169.12,335Z"/><path class="cls-6" d="M180.54,334.84a1,1,0,1,0,.83-1.11A1,1,0,0,0,180.54,334.84Z"/><path class="cls-6" d="M179.6,333c.15.1.78-.61,1.84-.83s2,.16,2.05,0-.13-.27-.52-.45a2.74,2.74,0,0,0-1.67-.16,2.62,2.62,0,0,0-1.44.82C179.59,332.68,179.53,332.93,179.6,333Z"/><path class="cls-6" d="M177.38,341.66a7.66,7.66,0,0,0-1.79,0c-.28,0-.55,0-.63-.14a1.54,1.54,0,0,1,0-.85c.12-.7.25-1.45.38-2.23a36.32,36.32,0,0,0,.68-5.78,37,37,0,0,0-1.15,5.71c-.11.79-.23,1.53-.33,2.24a1.55,1.55,0,0,0,.08,1.1.68.68,0,0,0,.53.3,1.85,1.85,0,0,0,.47,0A7,7,0,0,0,177.38,341.66Z"/><path class="cls-11" d="M179.26,354.38a20,20,0,0,0,9.74-4.89s-1.41,5.81-9.26,6.69Z"/><path class="cls-6" d="M180.66,341.74c-.18,0,.06,1.18-.76,2.21s-2.07,1.15-2,1.31.32.17.84.07a2.9,2.9,0,0,0,1.72-1,2.52,2.52,0,0,0,.56-1.83C180.92,342,180.74,341.72,180.66,341.74Z"/><path class="cls-6" d="M178.46,328.87c.17.27,1.2-.09,2.48-.2s2.35,0,2.46-.27-.18-.37-.64-.57a4.35,4.35,0,0,0-3.77.36C178.57,328.47,178.39,328.74,178.46,328.87Z"/><path class="cls-6" d="M168.87,331.79c.23.2.91-.2,1.79-.39s1.66-.18,1.78-.47c.05-.13-.12-.35-.49-.51a2.57,2.57,0,0,0-1.55-.09,2.52,2.52,0,0,0-1.33.78C168.81,331.42,168.76,331.69,168.87,331.79Z"/><path class="cls-6" d="M166.11,328.6s4.36,1.25,9.13-2.28c3.14-2.31,7-3.85,8-3.31s1.81,4,5.39,4.47c0,0,1,6.79,3.59,6.08s-.54-14.07-.54-14.07l-7.46,1.14-7.42-.1-6.6,2.14-5,2.35Z"/><path class="cls-6" d="M191.45,317.54c0-.11-.66-.21-1.35.21s-.9,1.07-.79,1.11.43-.41,1-.76S191.45,317.66,191.45,317.54Z"/><path class="cls-6" d="M188.76,315.74a8.55,8.55,0,0,0,.13,1.75c.06.94-.2,1.68-.09,1.73a2.14,2.14,0,0,0,.5-1.75A2.76,2.76,0,0,0,188.76,315.74Z"/><path class="cls-7" d="M191.49,330.83c.09-.07,4.13-2.45,5.11,2s-3.72,4.54-3.76,4.42S191.49,330.83,191.49,330.83Z"/><path class="cls-11" d="M193.84,335.28a.57.57,0,0,1,.23.07.77.77,0,0,0,.59-.12,1.93,1.93,0,0,0,.51-1.92,2.44,2.44,0,0,0-.46-1.07.92.92,0,0,0-.72-.47.39.39,0,0,0-.41.31v.23s-.11-.05-.11-.24a.52.52,0,0,1,.11-.32.65.65,0,0,1,.41-.21,1.13,1.13,0,0,1,1,.52,2.8,2.8,0,0,1,.54,1.19,2.06,2.06,0,0,1-.72,2.18.87.87,0,0,1-.74,0C193.87,335.39,193.82,335.29,193.84,335.28Z"/><polygon class="cls-2" points="185.27 430.02 185.27 427.06 143.2 427.92 118.97 389.22 116.75 390.82 141.57 430.39 185.27 430.02"/><path class="cls-7" d="M156.16,417.12,154,420.26v6.46a1.41,1.41,0,0,0,1.54-.62,25.87,25.87,0,0,0,1-3.87l1,2.65a2.28,2.28,0,0,0,2.68,1.39l7.8-2-3.19-9.11Z"/><path class="cls-9" d="M193.93,356a11.5,11.5,0,0,1,8.45.57c3.93,1.86,7.56,6.81,9.75,12.59s7.72,15.6,12,32.47c3.74,14.72,8.62,30.21,4.57,35.72l-.09.11a8.35,8.35,0,0,1-9.52,2.85l-4-1.41a69.43,69.43,0,0,1-23.39-14.09L178,412.25l5.52-4.2s-4.29-27.39-2.5-37.81C182.55,361.23,189.29,357.52,193.93,356Z"/><path class="cls-9" d="M202.85,369.18l7.69,36a12.88,12.88,0,0,1-8.19,14.8l-33.45,6.41-4.17-12.47h0l27.15-8.46-8-34.76Z"/><path class="cls-6" d="M210.83,412a1.6,1.6,0,0,0-.05.21l-.13.62a2.86,2.86,0,0,1-.09.46l-.2.54-.22.62-.37.67a8.92,8.92,0,0,1-2.71,2.86,15.11,15.11,0,0,1-4.9,2.14l-33.1,6.06.23.13c-1.38-3.95-2.84-8.13-4.35-12.48l-.14.28,27.2-8.45.2-.07,0-.21-1.49-5.84c-1.58-6.3-3.06-12.46-4.34-18.45-.63-3-1.23-5.94-1.64-8.85-.12-.72-.12-1.44-.18-2.16a9.26,9.26,0,0,1,.23-2.1,8.88,8.88,0,0,1,1.85-3.69,9.08,9.08,0,0,1,7.1-3.17,9.23,9.23,0,0,1,6.58,3.33,17.4,17.4,0,0,1,3.4,6.25,55.43,55.43,0,0,1,1.53,6.48c1.65,8.34,3,15.09,3.91,19.78.46,2.32.83,4.13,1.08,5.37.13.6.22,1.07.29,1.4a4.14,4.14,0,0,0,.12.47,2.54,2.54,0,0,0-.07-.48c-.07-.32-.14-.8-.25-1.4-.23-1.26-.57-3.07-1-5.39-.89-4.7-2.17-11.46-3.76-19.81a53.79,53.79,0,0,0-1.52-6.53,17.59,17.59,0,0,0-3.44-6.4,9.66,9.66,0,0,0-6.86-3.48,9.45,9.45,0,0,0-7.43,3.31,9.16,9.16,0,0,0-2,3.86,10.33,10.33,0,0,0-.25,2.21c.06.73.06,1.48.18,2.21.41,2.93,1,5.88,1.64,8.89,1.28,6,2.76,12.16,4.33,18.46.51,2,1,4,1.49,5.84l.16-.27-27.14,8.48-.21.07.07.21c1.53,4.34,3,8.51,4.38,12.46l.06.16h.17c13.69-2.56,25.08-4.65,33.07-6.22a15.5,15.5,0,0,0,5-2.22,9,9,0,0,0,2.71-3l.35-.68.22-.64c.07-.2.13-.38.18-.55l.08-.46.1-.64A1.94,1.94,0,0,0,210.83,412Z"/><path class="cls-6" d="M196.54,410.15c.06,0,.1-.42-.07-1.08a4.92,4.92,0,0,0-1.34-2.23,5.06,5.06,0,0,0-2.29-1.25c-.66-.15-1.08-.08-1.08,0s.4.13,1,.34a5.93,5.93,0,0,1,2.06,1.27,6,6,0,0,1,1.35,2C196.4,409.76,196.47,410.16,196.54,410.15Z"/><g class="cls-15"><path d="M203.63,368.7a206.64,206.64,0,0,1,8.06,38.43,30.86,30.86,0,0,1,.17,9,10,10,0,0,1-12.7,8.81c-2.77-.52-7.26-1.14-9.81-2.35l15-3.08s9.65-.6,5.51-19.08S203.63,368.7,203.63,368.7Z"/></g><path class="cls-9" d="M182,369.18l-2.71-8.47L197,349l2.39,8.26s-9.19,1-11.57,3.49S182,369.18,182,369.18Z"/><path class="cls-6" d="M182.86,364a11.61,11.61,0,0,1-1.49-4.71,11.61,11.61,0,0,1,1.49,4.71Z"/><path class="cls-6" d="M186.24,361.86a6.38,6.38,0,0,1-1-2.28,6,6,0,0,1-.49-2.43,11.86,11.86,0,0,1,1.48,4.71Z"/><path class="cls-6" d="M189.62,359.75a6.38,6.38,0,0,1-1-2.28,6,6,0,0,1-.49-2.44,11.59,11.59,0,0,1,1.49,4.72Z"/><path class="cls-6" d="M192.73,357.85a11.59,11.59,0,0,1-1.49-4.72,6.38,6.38,0,0,1,1,2.28A6,6,0,0,1,192.73,357.85Z"/><path class="cls-6" d="M195.91,355.56a5.94,5.94,0,0,1-1-2.27,6.19,6.19,0,0,1-.5-2.44,11.52,11.52,0,0,1,1.49,4.71Z"/><path class="cls-2" d="M167.43,421a4.23,4.23,0,0,1,.83-.27l2.42-.68,8.93-2.39,13.26-3.49,3.84-1a11.67,11.67,0,0,0,1.91-.58,5.19,5.19,0,0,0,1.61-1.14,5.27,5.27,0,0,0,1.49-3.7,7.69,7.69,0,0,0-.36-2.08l-.54-2.16-7.42-29.58c-.91-3.76-1.66-6.81-2.18-9l-.57-2.45a5,5,0,0,1-.17-.86,4.23,4.23,0,0,1,.27.83q.24.9.66,2.43c.57,2.16,1.37,5.2,2.35,8.94,2,7.6,4.61,18,7.56,29.55.18.72.37,1.44.55,2.15a8.31,8.31,0,0,1,.37,2.21,5.83,5.83,0,0,1-3.41,5.3,12.81,12.81,0,0,1-2,.61l-3.84,1L179.7,418l-9,2.24-2.44.58A5.84,5.84,0,0,1,167.43,421Z"/><path class="cls-2" d="M168.11,422.93l.22-.08.65-.2,2.53-.72,9.31-2.54,13.83-3.7,4-1.07c.67-.18,1.39-.34,2-.56a5.6,5.6,0,0,0,1.77-1.06,5.29,5.29,0,0,0,1.74-3.77,6.66,6.66,0,0,0-.35-2.17l-.6-2.24L195,374.05c-1-3.91-1.84-7.09-2.43-9.34-.27-1.07-.48-1.92-.64-2.54l-.15-.67v-.23a.85.85,0,0,1,.09.22c.06.17.12.39.2.65.18.62.43,1.46.73,2.52.63,2.24,1.51,5.41,2.6,9.3,2.15,7.9,5.11,18.75,8.37,30.73.21.75.41,1.5.61,2.24a7,7,0,0,1,.36,2.32,5.79,5.79,0,0,1-1.92,4.13,5.9,5.9,0,0,1-1.94,1.16c-.73.23-1.4.37-2.09.57l-4,1-13.86,3.6-9.35,2.38-2.55.62-.67.15A.72.72,0,0,1,168.11,422.93Z"/></g><g id="freepik--Plants--inject-170"><path class="cls-9" d="M268.7,427.47c-1.32,1.89-3.89,1.27-5.09.11a9.65,9.65,0,0,1-2.16-4.42c-1-3.65-2.1-7.47-1.32-11.19a6.26,6.26,0,0,1,1.43-3,3.27,3.27,0,0,1,3.07-1c1.3.34,2.11,1.61,2.69,2.82A26.89,26.89,0,0,1,270,422.17a9.29,9.29,0,0,1-1.26,5.3"/><g class="cls-15"><path d="M268.7,427.47c-1.32,1.89-3.89,1.27-5.09.11a9.65,9.65,0,0,1-2.16-4.42c-1-3.65-2.1-7.47-1.32-11.19a6.26,6.26,0,0,1,1.43-3,3.27,3.27,0,0,1,3.07-1c1.3.34,2.11,1.61,2.69,2.82A26.89,26.89,0,0,1,270,422.17a9.29,9.29,0,0,1-1.26,5.3"/></g><path class="cls-9" d="M263.74,437.05a11.49,11.49,0,0,0-7.12-.86,5.93,5.93,0,0,0-3.52,1.57,2.54,2.54,0,0,0,0,3.51,3.33,3.33,0,0,0,2.21.56c1.89,0,4-.35,5.48.78.86.65,1.43,1.72,2.45,2a2.41,2.41,0,0,0,2.67-1.19,4.17,4.17,0,0,0,.31-3.06A4.7,4.7,0,0,0,263.74,437.05Z"/><path class="cls-9" d="M272.34,430.19a6.9,6.9,0,0,1-1.07-6.34,12.21,12.21,0,0,1,3.75-5.44,20.3,20.3,0,0,1,6.72-4,7.14,7.14,0,0,1,3-.51,3.18,3.18,0,0,1,2.54,1.54c.71,1.34,0,3-.7,4.31a50.56,50.56,0,0,1-4.42,6.72,11.92,11.92,0,0,1-4.85,4.16c-2,.77-4.11.68-5.18-.72"/><path class="cls-6" d="M268.79,456a6.14,6.14,0,0,1-.12-.86c-.06-.62-.13-1.41-.22-2.35a31.84,31.84,0,0,0-.53-3.44,26.44,26.44,0,0,0-1.25-4.06,15.11,15.11,0,0,0-2.08-3.67,7.56,7.56,0,0,0-2.62-2.18,7.11,7.11,0,0,0-2.21-.69,6,6,0,0,1-.85-.12,4.22,4.22,0,0,1,.87,0,6.52,6.52,0,0,1,2.3.6,7.71,7.71,0,0,1,2.77,2.2,14.72,14.72,0,0,1,2.15,3.75,24.84,24.84,0,0,1,1.24,4.13,29.07,29.07,0,0,1,.46,3.48c.07,1,.1,1.8.11,2.36A3.46,3.46,0,0,1,268.79,456Z"/><path class="cls-6" d="M268.63,454.21a2.67,2.67,0,0,1,0-.4v-1.14c0-1,0-2.43-.05-4.2-.09-3.53-.39-8.42-1-13.79s-1.38-10.2-2.09-13.66c-.17-.87-.34-1.65-.5-2.34s-.29-1.27-.41-1.75l-.27-1.11a1.78,1.78,0,0,1-.07-.39,1.66,1.66,0,0,1,.14.37c.09.29.2.65.33,1.09s.3,1.06.47,1.75.37,1.46.55,2.33a129,129,0,0,1,2.2,13.68c.59,5.37.86,10.27.88,13.82,0,1.77,0,3.21-.06,4.2,0,.46-.05.84-.07,1.14A1.83,1.83,0,0,1,268.63,454.21Z"/><path class="cls-6" d="M268.61,444.76a7.88,7.88,0,0,1,0-1.19,23.93,23.93,0,0,1,.36-3.23,44.29,44.29,0,0,1,1-4.71,41.84,41.84,0,0,1,2-5.56,29.37,29.37,0,0,1,5.78-9,14.78,14.78,0,0,1,1.35-1.27c.21-.17.4-.35.58-.49l.53-.36a6.53,6.53,0,0,1,1-.64,32.52,32.52,0,0,0-3.28,2.93,31.24,31.24,0,0,0-5.64,9,47.46,47.46,0,0,0-3.12,10.17c-.25,1.34-.39,2.44-.47,3.2A11.13,11.13,0,0,1,268.61,444.76Z"/><path class="cls-9" d="M663.63,441.1c-.56-2.21.9-4.42,2.54-6s3.57-3,4.43-5.13c1.39-3.42-.43-7.87,1.92-10.72,1.39-1.67,3.85-2.22,5.08-4a9.15,9.15,0,0,0,1.11-3.21,32.68,32.68,0,0,1,8.21-15.15,28.4,28.4,0,0,1-3.27,14.63,17.44,17.44,0,0,0-2.45,5.54c-.53,3.26,1.27,6.63.45,9.83-.93,3.65-5.06,6.08-5.28,9.85-.18,3.19,2.58,6,2.36,9.18a8.57,8.57,0,0,1-1.44,3.77c-2.49,4.08-6.12,6.88-11.61,6.76l-6.72.2Z"/><g class="cls-10"><path d="M663.63,441.1c-.56-2.21.9-4.42,2.54-6s3.57-3,4.43-5.13c1.39-3.42-.43-7.87,1.92-10.72,1.39-1.67,3.85-2.22,5.08-4a9.15,9.15,0,0,0,1.11-3.21,32.68,32.68,0,0,1,8.21-15.15,28.4,28.4,0,0,1-3.27,14.63,17.44,17.44,0,0,0-2.45,5.54c-.53,3.26,1.27,6.63.45,9.83-.93,3.65-5.06,6.08-5.28,9.85-.18,3.19,2.58,6,2.36,9.18a8.57,8.57,0,0,1-1.44,3.77c-2.49,4.08-6.12,6.88-11.61,6.76l-6.72.2Z"/></g><path class="cls-6" d="M657.6,456.8a5.47,5.47,0,0,1-1.85-.05,11.86,11.86,0,0,1-2.18-.57,9.34,9.34,0,0,1-2.69-1.49,3.67,3.67,0,0,1-1.1-1.48,7.13,7.13,0,0,1-.31-2,19.78,19.78,0,0,0-.14-2.18,6,6,0,0,0-.81-2.16c-.78-1.4-2.09-2.72-2.51-4.62a15.32,15.32,0,0,1,.22-5.88,12.53,12.53,0,0,0-.12-6.32c-.71-2.1-2.17-4-2.9-6.38s-.36-5-.5-7.51a9.87,9.87,0,0,0-.86-3.74c-.53-1.19-1.28-2.31-1.86-3.57-1.18-2.54-1.37-5.41-1.68-8.22-.16-1.42-.31-2.85-.46-4.3a20.89,20.89,0,0,0-.72-4.3,38.88,38.88,0,0,0-1.59-4.17,15.12,15.12,0,0,1-.77-2.17,22.45,22.45,0,0,1-.2-2.32,27.81,27.81,0,0,1,.21-4.65c.19-1.55.48-3.08.65-4.64v-.57l.27.14a10.34,10.34,0,0,1,3.6,3.07,16.12,16.12,0,0,1,2.2,4.11,50.17,50.17,0,0,1,2,8.81,23.71,23.71,0,0,0,2.71,8.14c.73,1.2,1.61,2.3,2.39,3.47a9.32,9.32,0,0,1,1.64,3.84c.38,2.85-1.2,5.33-.88,7.85a8.9,8.9,0,0,0,1.2,3.5c.61,1.07,1.32,2.07,2,3.08a19.59,19.59,0,0,1,1.79,3.11,9.84,9.84,0,0,1,.81,3.37c.15,2.27-.19,4.42,0,6.45a14.9,14.9,0,0,0,1.62,5.53c.81,1.66,1.7,3.16,2.45,4.61.37.7.7,1.42,1,2.15a11.18,11.18,0,0,1,.58,2.13,13.65,13.65,0,0,1,0,3.83,9.56,9.56,0,0,1-1.95,4.88,4.29,4.29,0,0,1-.54.59,3.16,3.16,0,0,1-.45.37l-.38.27a8.81,8.81,0,0,0,1.31-1.28,9.83,9.83,0,0,0,1.85-4.85,13.67,13.67,0,0,0-.07-3.78,10,10,0,0,0-.58-2.08c-.28-.69-.63-1.4-1-2.12-.76-1.44-1.66-2.93-2.48-4.6a15.06,15.06,0,0,1-1.69-5.63c-.16-2.07.16-4.23,0-6.44a9.39,9.39,0,0,0-.79-3.26,18.87,18.87,0,0,0-1.76-3c-.68-1-1.4-2-2-3.1A9.09,9.09,0,0,1,649.1,413c-.31-2.68,1.26-5.19.87-7.83a9.13,9.13,0,0,0-1.59-3.67c-.76-1.15-1.65-2.25-2.4-3.48a24.27,24.27,0,0,1-2.78-8.28,49.41,49.41,0,0,0-2-8.74,16.06,16.06,0,0,0-2.14-4,10,10,0,0,0-3.45-3l.31-.17v.27c-.18,1.58-.47,3.11-.66,4.65a28,28,0,0,0-.2,4.58,15,15,0,0,0,.19,2.24,13.13,13.13,0,0,0,.75,2.1,39.54,39.54,0,0,1,1.59,4.21,20.9,20.9,0,0,1,.73,4.37c.16,1.45.31,2.88.46,4.3.3,2.83.5,5.65,1.63,8.1.56,1.22,1.31,2.35,1.86,3.58a10.36,10.36,0,0,1,.88,3.88c.13,2.59-.22,5.13.47,7.43s2.14,4.2,2.86,6.37a12.78,12.78,0,0,1,.11,6.47,15,15,0,0,0-.25,5.78c.38,1.81,1.65,3.12,2.45,4.56a6,6,0,0,1,.82,2.25c.08.73.12,1.46.13,2.2a7.48,7.48,0,0,0,.27,2,3.64,3.64,0,0,0,1,1.42,8.85,8.85,0,0,0,2.62,1.49,11.43,11.43,0,0,0,2.15.6,9,9,0,0,0,1.37.14Z"/><path class="cls-6" d="M636.82,377.51l.06.21a4.1,4.1,0,0,0,.14.6c.13.53.29,1.33.53,2.33s.87,2.13,1.38,3.52,1.07,3,1.57,4.78.94,3.78,1.41,5.92a25.22,25.22,0,0,0,2.11,6.57c.55,1.1,1.16,2.21,1.65,3.42a16,16,0,0,1,.94,3.86,77.33,77.33,0,0,0,1.4,8.14c1.32,5.51,2.57,10.76,3.71,15.54s2.23,9.07,3.12,12.69,1.56,6.5,2.06,8.55l.54,2.34a2.41,2.41,0,0,0,.13.61.74.74,0,0,1,0,.21.68.68,0,0,1-.07-.2l-.18-.6c-.15-.56-.35-1.34-.61-2.31l-2.2-8.53c-.91-3.61-2-7.9-3.2-12.66s-2.42-10-3.75-15.55a77.88,77.88,0,0,1-1.4-8.17,15.26,15.26,0,0,0-.91-3.77c-.47-1.18-1.07-2.28-1.62-3.39a25.33,25.33,0,0,1-2.1-6.68c-.45-2.14-.87-4.12-1.36-5.91s-1-3.39-1.5-4.77-1.07-2.53-1.31-3.56-.35-1.82-.45-2.36a3.68,3.68,0,0,0-.1-.61A.81.81,0,0,1,636.82,377.51Z"/><path class="cls-9" d="M656.41,456.81c-4.37-2.63-5.59-10.56-3.73-15.31s5.09-9.1,5.61-14.18c.4-3.9-.85-7.92.08-11.73,1.26-5.15,6.31-9.11,6.28-14.41,0-3-1.69-5.77-1.54-8.74.19-3.64,3-6.52,4.75-9.72,2.68-4.89,2.88-10.7,3.82-16.2s3.07-11.38,8-14.06c.69,4.68,1.9,7.89,1.48,14.22-.15,2.27-2.82,6.61-3.21,11.59-.23,3-.39,6-.59,8.94a28.64,28.64,0,0,1-1.46,8.56c-.81,2.08-2.1,4-2.7,6.11-1.14,4,.3,8.41-.62,12.5-.78,3.46-3.2,6.43-3.71,9.95-.72,4.93,2.45,10.09.79,14.79-.83,2.33-2.76,4.2-3.32,6.61-.44,1.87,0,3.86-.38,5.74-.63,3-6.43,5.35-9.52,5.14"/><path class="cls-6" d="M678.41,357.09a1.22,1.22,0,0,1,0,.27c0,.19-.06.45-.1.76-.11.68-.23,1.67-.46,2.95s-.93,2.74-1.47,4.48-1.14,3.75-1.64,6-1,4.74-1.4,7.42a31.38,31.38,0,0,1-2.3,8.39c-.63,1.4-1.32,2.8-1.85,4.29a19.64,19.64,0,0,0-1,4.74,97.35,97.35,0,0,1-1.35,10.21c-1.38,6.92-2.7,13.51-3.9,19.51s-2.4,11.36-3.36,15.89-1.75,8.15-2.3,10.7c-.27,1.24-.49,2.21-.64,2.91q-.12.47-.18.75c0,.17-.07.26-.08.25a1.13,1.13,0,0,1,0-.26,5.52,5.52,0,0,1,.14-.76c.14-.7.33-1.68.57-2.92.52-2.57,1.25-6.22,2.16-10.73s2-9.93,3.27-15.91,2.49-12.58,3.87-19.5a99.84,99.84,0,0,0,1.34-10.18,20,20,0,0,1,1-4.84c.54-1.52,1.25-2.93,1.87-4.32a31,31,0,0,0,2.31-8.28c.47-2.67.92-5.17,1.46-7.43s1.12-4.26,1.71-6,1.26-3.19,1.53-4.45.41-2.25.54-2.92c.06-.32.11-.57.15-.76A1.1,1.1,0,0,1,678.41,357.09Z"/></g><g id="freepik--Lines--inject-170"><path class="cls-6" d="M376,315.48c-.14,0-.26-17.91-.26-40s.12-40,.26-40,.26,17.91.26,40S376.18,315.48,376,315.48Z"/><path class="cls-6" d="M210.83,313.09v-8.92h.08c21.51-.11,87.47-.18,165.36-.18l163,.17h.09v.09l.09.09-163,.17c-77.89,0-143.85-.08-165.36-.18l.08-.08v8.3A.64.64,0,0,1,210.83,313.09Z"/><path class="cls-6" d="M321.2,130.21c.14,0,.26,10.2.26,22.79s-.12,22.79-.26,22.79-.26-10.2-.26-22.79S321.05,130.21,321.2,130.21Z"/><path class="cls-6" d="M432.59,130.21c.14,0,.26,10.2.26,22.79s-.12,22.79-.26,22.79-.26-10.2-.26-22.79S432.45,130.21,432.59,130.21Z"/><path class="cls-6" d="M538.59,123.45V127c0,2.35,0,5.81,0,10.29,0,9,0,22.07.07,38.5V176h-.17l-161,.09L211.41,176h-.17v-.16c0-14.89.06-26.68.08-34.76v0c0,8.08,0,19.87.08,34.76l-.16-.16,166.18-.1,161,.09-.17.17c0-16.44.06-29.52.08-38.5V124.4A1.51,1.51,0,0,1,538.59,123.45Z"/><path class="cls-6" d="M378.58,213.49c-.15,0-.26-8.44-.26-18.85s.11-18.85.26-18.85.26,8.44.26,18.85S378.72,213.49,378.58,213.49Z"/></g><g id="freepik--Server--inject-170"><rect class="cls-6" x="325.92" y="210.27" width="101.66" height="83.69"/><rect class="cls-8" x="311.08" y="232.58" width="111.13" height="27.57"/><rect class="cls-6" x="316.02" y="238.26" width="21.88" height="3.37"/><rect class="cls-6" x="316.02" y="244.05" width="21.88" height="3.37"/><rect class="cls-6" x="316.02" y="250.04" width="21.88" height="3.37"/><path class="cls-6" d="M346.55,240.29a1.26,1.26,0,1,1-1.27-1.25h0a1.25,1.25,0,0,1,1.26,1.24Z"/><path class="cls-6" d="M352.09,240.29a1.26,1.26,0,1,1-1.27-1.25h0a1.25,1.25,0,0,1,1.26,1.24Z"/><path class="cls-6" d="M357.63,240.29a1.26,1.26,0,1,1-1.27-1.25h0a1.25,1.25,0,0,1,1.26,1.24Z"/><path class="cls-6" d="M363.17,240.29A1.26,1.26,0,1,1,361.9,239h0a1.25,1.25,0,0,1,1.26,1.24Z"/><path class="cls-6" d="M406.09,240.29a1.26,1.26,0,1,1-1.27-1.25h0A1.25,1.25,0,0,1,406.09,240.29Z"/><path class="cls-6" d="M411.74,240.29a1.26,1.26,0,1,1-1.27-1.25h0a1.25,1.25,0,0,1,1.26,1.24Z"/><path class="cls-6" d="M368.71,240.29a1.26,1.26,0,1,1-1.27-1.25h0A1.27,1.27,0,0,1,368.71,240.29Z"/><path class="cls-6" d="M395.91,240.29a1.26,1.26,0,1,1-1.27-1.25h0a1.25,1.25,0,0,1,1.26,1.24Z"/><path class="cls-1" d="M374.25,240.29A1.26,1.26,0,1,1,373,239a1.26,1.26,0,0,1,1.25,1.29Z"/><path class="cls-1" d="M379.78,240.29a1.26,1.26,0,1,1-1.27-1.25h0A1.25,1.25,0,0,1,379.78,240.29Z"/><path class="cls-1" d="M391,240.29a1.26,1.26,0,1,1-1.27-1.25h0A1.25,1.25,0,0,1,391,240.29Z"/><path class="cls-1" d="M416.34,240.29a1.26,1.26,0,1,1-1.27-1.25h0A1.27,1.27,0,0,1,416.34,240.29Z"/><path class="cls-9" d="M385.32,240.29a1.26,1.26,0,1,1-1.27-1.25h0A1.25,1.25,0,0,1,385.32,240.29Z"/><path class="cls-9" d="M401.18,240.29a1.26,1.26,0,1,1-1.27-1.25h0A1.25,1.25,0,0,1,401.18,240.29Z"/><path class="cls-6" d="M413.82,246.34a1.26,1.26,0,1,1,1.26,1.26,1.25,1.25,0,0,1-1.26-1.26Z"/><circle class="cls-6" cx="409.54" cy="246.34" r="1.26"/><path class="cls-6" d="M402.75,246.34A1.26,1.26,0,1,1,404,247.6h0a1.25,1.25,0,0,1-1.25-1.25Z"/><circle class="cls-6" cx="398.46" cy="246.34" r="1.26"/><circle class="cls-6" cx="355.54" cy="246.34" r="1.26"/><path class="cls-6" d="M348.64,246.34a1.26,1.26,0,1,1,1.26,1.26h0a1.25,1.25,0,0,1-1.25-1.25Z"/><path class="cls-6" d="M391.67,246.34a1.26,1.26,0,1,1,1.26,1.26h0a1.25,1.25,0,0,1-1.25-1.25Z"/><path class="cls-6" d="M364.47,246.34a1.26,1.26,0,1,1,1.26,1.26h0a1.25,1.25,0,0,1-1.25-1.25Z"/><path class="cls-1" d="M386.13,246.34a1.26,1.26,0,1,1,1.26,1.26h0a1.25,1.25,0,0,1-1.25-1.25Z"/><path class="cls-1" d="M380.59,246.34a1.26,1.26,0,1,1,1.26,1.26,1.25,1.25,0,0,1-1.26-1.26Z"/><path class="cls-1" d="M369.35,246.34a1.26,1.26,0,1,1,1.26,1.26,1.25,1.25,0,0,1-1.26-1.26Z"/><circle class="cls-1" cx="345.29" cy="246.34" r="1.26"/><path class="cls-9" d="M375.05,246.34a1.26,1.26,0,1,1,1.26,1.26,1.25,1.25,0,0,1-1.26-1.26Z"/><circle class="cls-9" cx="360.45" cy="246.34" r="1.26"/><circle class="cls-6" cx="345.29" cy="251.73" r="1.26"/><path class="cls-6" d="M352.09,251.73a1.26,1.26,0,1,1-1.26-1.26,1.25,1.25,0,0,1,1.26,1.26Z"/><circle class="cls-6" cx="356.37" cy="251.73" r="1.26"/><path class="cls-6" d="M363.17,251.73a1.26,1.26,0,1,1-1.26-1.26,1.25,1.25,0,0,1,1.26,1.26Z"/><path class="cls-6" d="M406.09,251.73a1.26,1.26,0,1,1-1.26-1.26h0a1.25,1.25,0,0,1,1.25,1.25Z"/><circle class="cls-6" cx="410.48" cy="251.73" r="1.26"/><circle class="cls-6" cx="367.45" cy="251.73" r="1.26"/><circle class="cls-6" cx="394.65" cy="251.73" r="1.26"/><path class="cls-1" d="M374.25,251.73a1.26,1.26,0,1,1-1.26-1.26,1.25,1.25,0,0,1,1.26,1.26Z"/><path class="cls-1" d="M379.78,251.73a1.26,1.26,0,1,1-1.26-1.26h0a1.25,1.25,0,0,1,1.25,1.25Z"/><circle class="cls-1" cx="389.77" cy="251.73" r="1.26"/><path class="cls-1" d="M416.34,251.73a1.26,1.26,0,1,1-1.26-1.26,1.25,1.25,0,0,1,1.26,1.26Z"/><circle class="cls-9" cx="384.07" cy="251.73" r="1.26"/><path class="cls-9" d="M401.18,251.73a1.26,1.26,0,1,1-1.26-1.26h0a1.25,1.25,0,0,1,1.25,1.25Z"/><rect class="cls-8" x="311.08" y="266.61" width="111.13" height="27.57"/><circle class="cls-6" cx="345.02" cy="274.04" r="1.26"/><path class="cls-6" d="M351.81,274a1.26,1.26,0,1,1-1.27-1.25h0A1.25,1.25,0,0,1,351.81,274Z"/><circle class="cls-6" cx="356.1" cy="274.04" r="1.26"/><path class="cls-6" d="M362.89,274a1.26,1.26,0,1,1-1.27-1.25h0A1.25,1.25,0,0,1,362.89,274Z"/><path class="cls-6" d="M405.82,274a1.26,1.26,0,1,1-1.27-1.25h0A1.27,1.27,0,0,1,405.82,274Z"/><circle class="cls-6" cx="410.21" cy="274.04" r="1.26"/><circle class="cls-6" cx="367.18" cy="274.04" r="1.26"/><circle class="cls-6" cx="394.38" cy="274.04" r="1.26"/><path class="cls-1" d="M374,274a1.26,1.26,0,1,1-1.27-1.25h0A1.25,1.25,0,0,1,374,274Z"/><circle class="cls-1" cx="378.25" cy="274.04" r="1.26"/><circle class="cls-1" cx="389.49" cy="274.04" r="1.26"/><path class="cls-1" d="M416.06,274a1.26,1.26,0,1,1-1.27-1.25h0a1.25,1.25,0,0,1,1.26,1.24Z"/><path class="cls-9" d="M385.05,274a1.26,1.26,0,1,1-1.27-1.25h0a1.25,1.25,0,0,1,1.26,1.24Z"/><path class="cls-9" d="M400.91,274a1.26,1.26,0,1,1-1.27-1.25h0a1.25,1.25,0,0,1,1.26,1.24Z"/><path class="cls-6" d="M413.55,280.09a1.26,1.26,0,1,1,1.26,1.26h0a1.25,1.25,0,0,1-1.25-1.25Z"/><path class="cls-6" d="M408,280.09a1.26,1.26,0,1,1,1.26,1.26,1.25,1.25,0,0,1-1.26-1.26Z"/><path class="cls-6" d="M402.47,280.09a1.26,1.26,0,1,1,1.26,1.26,1.25,1.25,0,0,1-1.26-1.26Z"/><path class="cls-6" d="M396.93,280.09a1.26,1.26,0,1,1,1.26,1.26,1.25,1.25,0,0,1-1.26-1.26Z"/><path class="cls-6" d="M354,280.09a1.26,1.26,0,1,1,1.26,1.26h0A1.25,1.25,0,0,1,354,280.1Z"/><path class="cls-6" d="M348.36,280.09a1.26,1.26,0,1,1,1.26,1.26,1.25,1.25,0,0,1-1.26-1.26Z"/><path class="cls-6" d="M391.39,280.09a1.26,1.26,0,1,1,1.26,1.26,1.25,1.25,0,0,1-1.26-1.26Z"/><path class="cls-6" d="M364.19,280.09a1.26,1.26,0,1,1,1.26,1.26,1.25,1.25,0,0,1-1.26-1.26Z"/><path class="cls-1" d="M385.85,280.09a1.26,1.26,0,1,1,1.26,1.26,1.25,1.25,0,0,1-1.26-1.26Z"/><path class="cls-1" d="M380.31,280.09a1.26,1.26,0,1,1,1.26,1.26,1.25,1.25,0,0,1-1.26-1.26Z"/><path class="cls-1" d="M369.08,280.09a1.26,1.26,0,1,1,1.26,1.26h0a1.25,1.25,0,0,1-1.25-1.25Z"/><path class="cls-1" d="M343.76,280.09a1.26,1.26,0,1,1,1.26,1.26,1.25,1.25,0,0,1-1.26-1.26Z"/><path class="cls-9" d="M374.78,280.09a1.26,1.26,0,1,1,1.26,1.26h0a1.25,1.25,0,0,1-1.25-1.25Z"/><path class="cls-9" d="M358.92,280.09a1.26,1.26,0,1,1,1.26,1.26h0a1.25,1.25,0,0,1-1.25-1.25Z"/><path class="cls-6" d="M346.27,285.48a1.26,1.26,0,1,1-1.26-1.26h0a1.25,1.25,0,0,1,1.25,1.25Z"/><path class="cls-6" d="M351.81,285.48a1.26,1.26,0,1,1-1.26-1.26h0a1.25,1.25,0,0,1,1.25,1.25Z"/><path class="cls-6" d="M357.35,285.48a1.26,1.26,0,1,1-1.26-1.26h0a1.25,1.25,0,0,1,1.25,1.25Z"/><path class="cls-6" d="M362.89,285.48a1.26,1.26,0,1,1-1.26-1.26h0a1.25,1.25,0,0,1,1.25,1.25Z"/><path class="cls-6" d="M405.82,285.48a1.26,1.26,0,1,1-1.26-1.26,1.25,1.25,0,0,1,1.26,1.26Z"/><path class="cls-6" d="M411.46,285.48a1.26,1.26,0,1,1-1.26-1.26h0a1.25,1.25,0,0,1,1.25,1.25Z"/><path class="cls-6" d="M368.43,285.48a1.26,1.26,0,1,1-1.26-1.26h0a1.25,1.25,0,0,1,1.25,1.25Z"/><path class="cls-6" d="M395.63,285.48a1.26,1.26,0,1,1-1.26-1.26h0a1.25,1.25,0,0,1,1.25,1.25Z"/><path class="cls-1" d="M374,285.48a1.26,1.26,0,1,1-1.26-1.26h0a1.25,1.25,0,0,1,1.25,1.25Z"/><path class="cls-1" d="M379.51,285.48a1.26,1.26,0,1,1-1.26-1.26,1.25,1.25,0,0,1,1.26,1.26Z"/><path class="cls-1" d="M390.75,285.48a1.26,1.26,0,1,1-1.26-1.26,1.25,1.25,0,0,1,1.26,1.26Z"/><path class="cls-1" d="M416.06,285.48a1.26,1.26,0,1,1-1.26-1.26,1.25,1.25,0,0,1,1.26,1.26Z"/><path class="cls-9" d="M385.05,285.48a1.26,1.26,0,1,1-1.26-1.26,1.25,1.25,0,0,1,1.26,1.26Z"/><path class="cls-9" d="M400.91,285.48a1.26,1.26,0,1,1-1.26-1.26,1.25,1.25,0,0,1,1.26,1.26Z"/><rect class="cls-6" x="316.02" y="272.28" width="21.88" height="3.37"/><rect class="cls-6" x="316.02" y="278.08" width="21.88" height="3.37"/><rect class="cls-6" x="316.02" y="284.07" width="21.88" height="3.37"/><polygon class="cls-6" points="438.92 260.11 422.21 260.15 422.21 232.58 438.92 232.54 438.92 260.11"/><polygon class="cls-6" points="438.92 226.58 422.21 226.63 422.21 199.06 438.92 199.01 438.92 226.58"/><polygon class="cls-6" points="438.92 293.92 422.21 293.96 422.21 266.39 438.92 266.35 438.92 293.92"/><rect class="cls-8" x="311.89" y="198.8" width="111.13" height="27.57"/><rect class="cls-6" x="316.82" y="204.48" width="21.88" height="3.37"/><rect class="cls-6" x="316.82" y="210.27" width="21.88" height="3.37"/><rect class="cls-6" x="316.82" y="216.26" width="21.88" height="3.37"/><path class="cls-6" d="M347.35,206.51a1.26,1.26,0,1,1-1.27-1.25h0A1.25,1.25,0,0,1,347.35,206.51Z"/><circle class="cls-6" cx="351.64" cy="206.51" r="1.26"/><path class="cls-6" d="M358.43,206.51a1.26,1.26,0,1,1-1.27-1.25h0A1.25,1.25,0,0,1,358.43,206.51Z"/><circle class="cls-6" cx="362.72" cy="206.51" r="1.26"/><path class="cls-6" d="M406.9,206.51a1.26,1.26,0,1,1-1.27-1.25h0A1.27,1.27,0,0,1,406.9,206.51Z"/><circle class="cls-6" cx="411.29" cy="206.51" r="1.26"/><path class="cls-6" d="M369.51,206.51a1.26,1.26,0,1,1-1.27-1.25h0A1.25,1.25,0,0,1,369.51,206.51Z"/><circle class="cls-6" cx="395.46" cy="206.51" r="1.26"/><path class="cls-1" d="M375.05,206.51a1.26,1.26,0,1,1-1.27-1.25h0A1.25,1.25,0,0,1,375.05,206.51Z"/><path class="cls-1" d="M380.59,206.51a1.26,1.26,0,1,1-1.27-1.25h0a1.25,1.25,0,0,1,1.26,1.24Z"/><path class="cls-1" d="M391.83,206.51a1.26,1.26,0,1,1-1.27-1.25h0a1.25,1.25,0,0,1,1.26,1.24Z"/><path class="cls-1" d="M417.14,206.51a1.26,1.26,0,1,1-1.27-1.25h0a1.25,1.25,0,0,1,1.26,1.24Z"/><path class="cls-9" d="M386.13,206.51a1.26,1.26,0,1,1-1.27-1.25h0a1.25,1.25,0,0,1,1.26,1.24Z"/><circle class="cls-9" cx="400.73" cy="206.51" r="1.26"/><path class="cls-6" d="M414.63,212.57a1.26,1.26,0,1,1,1.27,1.25h0A1.25,1.25,0,0,1,414.63,212.57Z"/><path class="cls-6" d="M409.09,212.57a1.26,1.26,0,1,1,1.27,1.25h0a1.25,1.25,0,0,1-1.26-1.24Z"/><path class="cls-6" d="M403.55,212.57a1.26,1.26,0,1,1,1.27,1.25h0a1.25,1.25,0,0,1-1.26-1.24Z"/><path class="cls-6" d="M398,212.57a1.26,1.26,0,1,1,1.27,1.25h0a1.25,1.25,0,0,1-1.26-1.24Z"/><path class="cls-6" d="M355.09,212.57a1.26,1.26,0,1,1,1.27,1.25h0A1.25,1.25,0,0,1,355.09,212.57Z"/><path class="cls-6" d="M349.44,212.57a1.26,1.26,0,1,1,1.27,1.25h0A1.25,1.25,0,0,1,349.44,212.57Z"/><path class="cls-6" d="M392.47,212.57a1.26,1.26,0,1,1,1.27,1.25h0a1.25,1.25,0,0,1-1.26-1.24Z"/><path class="cls-6" d="M365.27,212.57a1.26,1.26,0,1,1,1.27,1.25h0a1.25,1.25,0,0,1-1.26-1.24Z"/><path class="cls-1" d="M386.93,212.57a1.26,1.26,0,1,1,1.27,1.25h0A1.27,1.27,0,0,1,386.93,212.57Z"/><path class="cls-1" d="M381.39,212.57a1.26,1.26,0,1,1,1.27,1.25h0A1.27,1.27,0,0,1,381.39,212.57Z"/><path class="cls-1" d="M370.16,212.57a1.26,1.26,0,1,1,1.27,1.25h0A1.25,1.25,0,0,1,370.16,212.57Z"/><path class="cls-1" d="M344.84,212.57a1.26,1.26,0,1,1,1.27,1.25h0A1.27,1.27,0,0,1,344.84,212.57Z"/><path class="cls-9" d="M375.86,212.57a1.26,1.26,0,1,1,1.27,1.25h0A1.25,1.25,0,0,1,375.86,212.57Z"/><path class="cls-9" d="M360,212.57a1.26,1.26,0,1,1,1.27,1.25h0A1.25,1.25,0,0,1,360,212.57Z"/><path class="cls-6" d="M347.35,218a1.26,1.26,0,1,1-1.26-1.26h0a1.25,1.25,0,0,1,1.25,1.25Z"/><path class="cls-6" d="M352.89,218a1.26,1.26,0,1,1-1.26-1.26h0a1.25,1.25,0,0,1,1.25,1.25Z"/><path class="cls-6" d="M358.43,218a1.26,1.26,0,1,1-1.26-1.26h0a1.25,1.25,0,0,1,1.25,1.25Z"/><path class="cls-6" d="M364,218a1.26,1.26,0,1,1-1.26-1.26h0A1.25,1.25,0,0,1,364,218Z"/><path class="cls-6" d="M406.9,218a1.26,1.26,0,1,1-1.26-1.26A1.25,1.25,0,0,1,406.9,218Z"/><path class="cls-6" d="M412.54,218a1.26,1.26,0,1,1-1.26-1.26h0a1.25,1.25,0,0,1,1.25,1.25Z"/><path class="cls-6" d="M369.51,218a1.26,1.26,0,1,1-1.26-1.26h0a1.25,1.25,0,0,1,1.25,1.25Z"/><path class="cls-6" d="M396.71,218a1.26,1.26,0,1,1-1.26-1.26h0a1.25,1.25,0,0,1,1.25,1.25Z"/><path class="cls-1" d="M375.05,218a1.26,1.26,0,1,1-1.26-1.26h0a1.25,1.25,0,0,1,1.25,1.25Z"/><path class="cls-1" d="M380.59,218a1.26,1.26,0,1,1-1.26-1.26,1.25,1.25,0,0,1,1.26,1.26Z"/><path class="cls-1" d="M391.83,218a1.26,1.26,0,1,1-1.26-1.26,1.25,1.25,0,0,1,1.26,1.26Z"/><path class="cls-1" d="M417.14,218a1.26,1.26,0,1,1-1.26-1.26,1.25,1.25,0,0,1,1.26,1.26Z"/><path class="cls-9" d="M386.13,218a1.26,1.26,0,1,1-1.26-1.26,1.25,1.25,0,0,1,1.26,1.26Z"/><path class="cls-9" d="M402,218a1.26,1.26,0,1,1-1.26-1.26A1.25,1.25,0,0,1,402,218Z"/></g><path class="cls-16" d="M455.16,135.68H405.83a6.17,6.17,0,0,1-6.17-6.17h0V61.23a6.17,6.17,0,0,1,6.17-6.17h31.29l24.21,25v49.49A6.17,6.17,0,0,1,455.16,135.68Z"/><g class="cls-15"><path d="M400.9,111.22h59.19a1.25,1.25,0,0,1,1.24,1.24V129.2a6.48,6.48,0,0,1-6.48,6.48H406.14a6.48,6.48,0,0,1-6.48-6.48h0V112.46A1.25,1.25,0,0,1,400.9,111.22Z"/></g><g class="cls-15"><path class="cls-3" d="M437.12,55.06V74.28A5.74,5.74,0,0,0,442.86,80h18.47Z"/></g><g class="cls-15"><path d="M437.37,76s-.24,4.66,5.06,6.19c.2.06.41.1.61.14,2.41.43,18.29,3.26,18.29,2.89V80H442.86S438.24,79.86,437.37,76Z"/></g><path class="cls-5" d="M420.45,90.83c1,.31,1.48,1,1.48,2.47v3.53a1.46,1.46,0,0,0,1.25,1.63,2,2,0,0,0,.35,0h.4v2.69h-1.28c-2.75,0-4.16-1.41-4.16-4v-4a.9.9,0,0,0-.79-1,.74.74,0,0,0-.21,0h-.73V89.49h.73a.91.91,0,0,0,1-.81.61.61,0,0,0,0-.19v-4c0-2.54,1.41-4,4.16-4h1.28v2.69h-.4a1.44,1.44,0,0,0-1.6,1.28,1,1,0,0,0,0,.35v3.53C421.93,89.89,421.46,90.53,420.45,90.83Z"/><path class="cls-5" d="M444.2,89.49v2.69h-.72a.9.9,0,0,0-1,.79.74.74,0,0,0,0,.21v4c0,2.54-1.41,4-4.17,4H437V98.46h.39A1.44,1.44,0,0,0,439,97.19a1.09,1.09,0,0,0,0-.36V93.3c0-1.52.46-2.16,1.48-2.47-1-.3-1.48-.94-1.48-2.46V84.84a1.45,1.45,0,0,0-1.25-1.63H437V80.52h1.27c2.76,0,4.17,1.41,4.17,4v4a.88.88,0,0,0,1,1Z"/><path class="cls-17" d="M235.69,135.68H186.37a6.17,6.17,0,0,1-6.17-6.17V61.23a6.17,6.17,0,0,1,6.17-6.17h31.28l24.22,25v49.49A6.19,6.19,0,0,1,235.69,135.68Z"/><g class="cls-15"><path d="M180.2,111.22h61.67v17.56a6.9,6.9,0,0,1-6.9,6.9H187.09a6.9,6.9,0,0,1-6.9-6.9V111.22Z"/></g><g class="cls-15"><path class="cls-3" d="M217.65,55.06V74.28A5.74,5.74,0,0,0,223.39,80h18.48Z"/></g><g class="cls-15"><path d="M217.9,76s-.24,4.66,5.07,6.19c.2.06.4.1.6.14,2.42.43,18.3,3.26,18.3,2.89V80H223.39S218.78,79.86,217.9,76Z"/></g><path class="cls-18" d="M563.42,135.68H514.1a6.17,6.17,0,0,1-6.17-6.17V61.23a6.17,6.17,0,0,1,6.17-6.17h31.28l24.22,25v49.49A6.19,6.19,0,0,1,563.42,135.68Z"/><g class="cls-15"><path d="M507.93,111.22H569.6v17.56a6.9,6.9,0,0,1-6.9,6.9H514.82a6.89,6.89,0,0,1-6.9-6.9V111.22Z"/></g><path class="cls-19" d="M345.42,135.68H296.1a6.17,6.17,0,0,1-6.17-6.17V61.23a6.17,6.17,0,0,1,6.17-6.17h31.28l24.22,25v49.49A6.17,6.17,0,0,1,345.42,135.68Z"/><g class="cls-15"><path d="M289.93,111.22H351.6v17.56a6.89,6.89,0,0,1-6.9,6.9H296.82a6.9,6.9,0,0,1-6.9-6.9V111.22Z"/></g><g class="cls-15"><path class="cls-3" d="M327.38,55.06V74.28A5.75,5.75,0,0,0,333.12,80H351.6Z"/></g><g class="cls-15"><path d="M327.63,76s-.24,4.66,5.07,6.19c.2.06.4.1.6.14,2.42.43,18.3,3.26,18.3,2.89V80H333.12S328.51,79.86,327.63,76Z"/></g><path class="cls-5" d="M205.52,91l-7.4,2.71,7.4,2.69v2.8l-10.58-4V92.29l10.58-4Z"/><path class="cls-5" d="M213.48,82.79h3.09l-7.34,20.95h-3.09Z"/><path class="cls-5" d="M227.55,92.29v2.89L217,99.2V96.42l7.4-2.69L217,91V88.26Z"/><path class="cls-5" d="M195.32,127.57a.32.32,0,0,1-.08-.21v-7.81a.28.28,0,0,1,.29-.3h1.1a.28.28,0,0,1,.3.3v3.08h3.5v-3.08a.29.29,0,0,1,.09-.22.28.28,0,0,1,.2-.08h1.12a.29.29,0,0,1,.21.08.33.33,0,0,1,.08.22v7.81a.32.32,0,0,1-.08.21.29.29,0,0,1-.21.08h-1.12a.28.28,0,0,1-.2-.08.29.29,0,0,1-.09-.21v-3.2h-3.5v3.2a.32.32,0,0,1-.08.21.33.33,0,0,1-.22.08h-1.1A.32.32,0,0,1,195.32,127.57Z"/><path class="cls-5" d="M205.93,127.57a.28.28,0,0,1-.08-.21v-6.61h-2.22a.32.32,0,0,1-.21-.08.33.33,0,0,1-.08-.22v-.9a.28.28,0,0,1,.29-.3h6.13a.29.29,0,0,1,.21.08.29.29,0,0,1,.09.22v.9a.29.29,0,0,1-.09.22.29.29,0,0,1-.21.08h-2.21v6.61a.32.32,0,0,1-.08.21.29.29,0,0,1-.21.08h-1.13A.3.3,0,0,1,205.93,127.57Z"/><path class="cls-5" d="M211.35,127.57a.32.32,0,0,1-.08-.21v-7.81a.33.33,0,0,1,.08-.22.29.29,0,0,1,.21-.08h1a.41.41,0,0,1,.36.23l2.32,4.29,2.31-4.29a.41.41,0,0,1,.36-.23h1a.28.28,0,0,1,.3.3v7.81a.29.29,0,0,1-.08.21.33.33,0,0,1-.22.08h-1a.28.28,0,0,1-.2-.08.29.29,0,0,1-.09-.21V122.2l-1.67,3.17a.4.4,0,0,1-.39.26H215a.45.45,0,0,1-.4-.26l-1.67-3.17v5.16a.32.32,0,0,1-.08.21.29.29,0,0,1-.21.08h-1A.32.32,0,0,1,211.35,127.57Z"/><path class="cls-5" d="M221.1,127.57a.29.29,0,0,1-.09-.21v-7.82a.26.26,0,0,1,.09-.21.28.28,0,0,1,.2-.08h1.13a.27.27,0,0,1,.29.29v6.67h3.8a.33.33,0,0,1,.22.08.32.32,0,0,1,.08.21v.86a.32.32,0,0,1-.08.21.33.33,0,0,1-.22.08H221.3A.28.28,0,0,1,221.1,127.57Z"/><path class="cls-5" d="M315.05,127.47a2.7,2.7,0,0,1-1.19-.9,2.49,2.49,0,0,1-.48-1.45.27.27,0,0,1,.08-.19.24.24,0,0,1,.19-.08h1.16a.34.34,0,0,1,.35.3,1.34,1.34,0,0,0,.51.93,1.76,1.76,0,0,0,1.05.3,1.39,1.39,0,0,0,1.15-.49,2.12,2.12,0,0,0,.4-1.36v-3.84H314.2a.28.28,0,0,1-.2-.08.29.29,0,0,1-.09-.22v-.85a.26.26,0,0,1,.09-.21.28.28,0,0,1,.2-.08h5.51a.29.29,0,0,1,.21.08.33.33,0,0,1,.08.22v5a3.43,3.43,0,0,1-.41,1.71,2.68,2.68,0,0,1-1.16,1.1,3.9,3.9,0,0,1-1.76.38A4.25,4.25,0,0,1,315.05,127.47Z"/><path class="cls-5" d="M322.88,127.45a2.73,2.73,0,0,1-1.17-.86,2,2,0,0,1-.42-1.15.28.28,0,0,1,.07-.17.26.26,0,0,1,.19-.08h1.09a.35.35,0,0,1,.21.06.66.66,0,0,1,.16.17,1.22,1.22,0,0,0,.54.68,2.11,2.11,0,0,0,1.17.28,2.39,2.39,0,0,0,1.27-.28.9.9,0,0,0,.43-.78.77.77,0,0,0-.22-.54,1.86,1.86,0,0,0-.65-.38c-.3-.1-.73-.23-1.31-.39a5.17,5.17,0,0,1-2.07-.88,2,2,0,0,1-.66-1.59,2.14,2.14,0,0,1,.38-1.24,2.6,2.6,0,0,1,1.1-.86,4.1,4.1,0,0,1,1.66-.31,4,4,0,0,1,1.73.35,2.8,2.8,0,0,1,1.1.87,2,2,0,0,1,.4,1,.23.23,0,0,1-.07.17.25.25,0,0,1-.18.08h-1.14a.35.35,0,0,1-.36-.22.94.94,0,0,0-.47-.64,1.87,1.87,0,0,0-1-.26,2,2,0,0,0-1,.25.84.84,0,0,0-.37.74.79.79,0,0,0,.19.54,1.54,1.54,0,0,0,.6.37,11.11,11.11,0,0,0,1.19.37,8.55,8.55,0,0,1,1.7.54,2.09,2.09,0,0,1,.92.76,2,2,0,0,1,.31,1.16,2.22,2.22,0,0,1-.43,1.35,2.71,2.71,0,0,1-1.2.87,5,5,0,0,1-1.8.3A4.81,4.81,0,0,1,322.88,127.45Z"/><path class="cls-5" d="M420.18,126.92a3.31,3.31,0,0,1-1-2.4c0-.22,0-.57,0-1.06s0-.85,0-1.08a3.31,3.31,0,0,1,1-2.39,3.58,3.58,0,0,1,2.55-.86,4.32,4.32,0,0,1,1.86.37,2.86,2.86,0,0,1,1.23,1,2.56,2.56,0,0,1,.46,1.43v0a.2.2,0,0,1-.07.16.26.26,0,0,1-.18.07h-1.16a.29.29,0,0,1-.22-.07.45.45,0,0,1-.12-.23,1.7,1.7,0,0,0-.62-1,2,2,0,0,0-1.18-.31c-1.14,0-1.74.64-1.79,1.92,0,.22,0,.55,0,1s0,.79,0,1c.05,1.28.65,1.92,1.79,1.92a2,2,0,0,0,1.17-.31,1.66,1.66,0,0,0,.63-1,.45.45,0,0,1,.12-.23.29.29,0,0,1,.22-.07H426a.32.32,0,0,1,.19.07.2.2,0,0,1,.06.18,2.56,2.56,0,0,1-.46,1.43,2.86,2.86,0,0,1-1.23,1,4.32,4.32,0,0,1-1.86.37A3.58,3.58,0,0,1,420.18,126.92Z"/><path class="cls-5" d="M428.8,127.45a2.7,2.7,0,0,1-1.16-.86,1.91,1.91,0,0,1-.42-1.15.23.23,0,0,1,.07-.17.25.25,0,0,1,.18-.08h1.09a.38.38,0,0,1,.22.06.63.63,0,0,1,.15.17,1.24,1.24,0,0,0,.55.68,2.07,2.07,0,0,0,1.17.28,2.41,2.41,0,0,0,1.27-.28.89.89,0,0,0,.42-.78.76.76,0,0,0-.21-.54,2,2,0,0,0-.66-.38c-.29-.1-.72-.23-1.3-.39a5.29,5.29,0,0,1-2.08-.88,2,2,0,0,1-.66-1.59,2.08,2.08,0,0,1,.39-1.24,2.6,2.6,0,0,1,1.1-.86,4.06,4.06,0,0,1,1.66-.31,4,4,0,0,1,1.72.35,2.84,2.84,0,0,1,1.11.87,2,2,0,0,1,.4,1,.28.28,0,0,1-.07.17.26.26,0,0,1-.19.08h-1.14a.36.36,0,0,1-.36-.22.93.93,0,0,0-.46-.64,1.9,1.9,0,0,0-1-.26,1.92,1.92,0,0,0-1,.25.89.89,0,0,0-.19,1.28,1.54,1.54,0,0,0,.6.37,11.91,11.91,0,0,0,1.19.37,8.34,8.34,0,0,1,1.7.54,2.18,2.18,0,0,1,.93.76,2.06,2.06,0,0,1,.3,1.16,2.16,2.16,0,0,1-.43,1.35,2.63,2.63,0,0,1-1.19.87,5,5,0,0,1-1.8.3A4.86,4.86,0,0,1,428.8,127.45Z"/><path class="cls-5" d="M436.52,127.45a2.8,2.8,0,0,1-1.17-.86,2,2,0,0,1-.42-1.15.25.25,0,0,1,.08-.17.22.22,0,0,1,.18-.08h1.09a.33.33,0,0,1,.21.06.66.66,0,0,1,.16.17,1.2,1.2,0,0,0,.55.68,2.07,2.07,0,0,0,1.17.28,2.35,2.35,0,0,0,1.26-.28.88.88,0,0,0,.43-.78.73.73,0,0,0-.22-.54,1.86,1.86,0,0,0-.65-.38c-.29-.1-.73-.23-1.3-.39a5.15,5.15,0,0,1-2.08-.88,2,2,0,0,1-.66-1.59,2.08,2.08,0,0,1,.39-1.24,2.57,2.57,0,0,1,1.09-.86,4.1,4.1,0,0,1,1.66-.31,4,4,0,0,1,1.73.35,2.8,2.8,0,0,1,1.1.87,1.88,1.88,0,0,1,.4,1,.23.23,0,0,1-.07.17.25.25,0,0,1-.18.08h-1.14a.35.35,0,0,1-.36-.22.94.94,0,0,0-.47-.64,2.17,2.17,0,0,0-2,0,.83.83,0,0,0-.38.74.79.79,0,0,0,.19.54,1.54,1.54,0,0,0,.6.37,11.11,11.11,0,0,0,1.19.37,8.34,8.34,0,0,1,1.7.54,2.18,2.18,0,0,1,.93.76,2.06,2.06,0,0,1,.3,1.16,2.22,2.22,0,0,1-.43,1.35,2.6,2.6,0,0,1-1.2.87,4.94,4.94,0,0,1-1.79.3A4.86,4.86,0,0,1,436.52,127.45Z"/><path class="cls-5" d="M524.17,127.57a.28.28,0,0,1-.08-.21v-7.81a.32.32,0,0,1,.07-.22.3.3,0,0,1,.21-.08h2.93c2.36,0,3.57,1.09,3.61,3.26,0,.47,0,.78,0,.94s0,.46,0,.92a3.37,3.37,0,0,1-.9,2.48,3.8,3.8,0,0,1-2.65.8h-3A.28.28,0,0,1,524.17,127.57Zm3.13-1.31a2,2,0,0,0,1.44-.45,2.08,2.08,0,0,0,.47-1.47c0-.48,0-.78,0-.9s0-.43,0-.89a1.69,1.69,0,0,0-2-1.91h-1.46v5.62Z"/><path class="cls-5" d="M531.66,127.58a.24.24,0,0,1-.07-.18l0-.11,2.88-7.74a.43.43,0,0,1,.43-.3h1.32a.43.43,0,0,1,.43.3l2.88,7.74,0,.11a.25.25,0,0,1-.08.18.23.23,0,0,1-.17.07h-1.07a.35.35,0,0,1-.35-.23l-.55-1.45h-3.55l-.56,1.45a.35.35,0,0,1-.34.23h-1.07A.24.24,0,0,1,531.66,127.58Zm2.57-3h2.71l-1.36-3.7Z"/><path class="cls-5" d="M541.74,127.57a.29.29,0,0,1-.09-.21v-6.61h-2.22a.3.3,0,0,1-.2-.08.29.29,0,0,1-.09-.22v-.9a.33.33,0,0,1,.08-.22.29.29,0,0,1,.21-.08h6.13a.33.33,0,0,1,.22.08.29.29,0,0,1,.09.22v.9a.29.29,0,0,1-.09.22.33.33,0,0,1-.22.08h-2.2v6.61a.32.32,0,0,1-.08.21.29.29,0,0,1-.21.08h-1.13A.28.28,0,0,1,541.74,127.57Z"/><path class="cls-5" d="M545.51,127.58a.25.25,0,0,1-.08-.18l0-.11,2.88-7.74a.43.43,0,0,1,.43-.3h1.32a.43.43,0,0,1,.43.3l2.88,7.74,0,.11a.24.24,0,0,1-.25.25H552.1a.35.35,0,0,1-.34-.23l-.55-1.45h-3.56l-.55,1.45a.35.35,0,0,1-.35.23h-1.07A.21.21,0,0,1,545.51,127.58Zm2.56-3h2.72l-1.36-3.7Z"/><path class="cls-5" d="M303.49,98.38l1.94-2.27a5.81,5.81,0,0,0,4.87,2.77c2.63,0,4-1.6,4-4.74V81h-8.44V78.1H317.6V94c0,5.2-2.54,7.77-7.3,7.77A8.12,8.12,0,0,1,303.49,98.38Z"/><path class="cls-5" d="M321.7,99.61l1.3-2.53a11.46,11.46,0,0,0,6.2,1.83c3,0,4.2-.9,4.2-2.4,0-4-11.17-.53-11.17-7.57,0-3.16,2.83-5.3,7.37-5.3a12.79,12.79,0,0,1,6.43,1.6l-1.37,2.54a9.2,9.2,0,0,0-5.1-1.4c-2.8,0-4.16,1-4.16,2.43,0,4.17,11.2.77,11.2,7.63,0,3.21-2.94,5.24-7.64,5.24A12.73,12.73,0,0,1,321.7,99.61Z"/><path class="cls-5" d="M550.47,102.85a6,6,0,0,0,4-1.81,5.61,5.61,0,0,0,1.24-2A5.52,5.52,0,0,0,556,97.7V82.76a9.78,9.78,0,0,0-.16-2.23,6.25,6.25,0,0,0-2.52-3.76,6,6,0,0,0-2.19-1,10.58,10.58,0,0,0-2.51-.18l-22.64,0a6.08,6.08,0,0,0-4.63,3,5.77,5.77,0,0,0-.83,2.64V97.59a5.75,5.75,0,0,0,4.37,4.94,9.73,9.73,0,0,0,2.22.16h6.34l12.47.08h4.58a1.5,1.5,0,0,1-.3,0h-4.28l-12.47.08h-6.34a10,10,0,0,1-2.32-.15,6.19,6.19,0,0,1-3.91-2.86,6.07,6.07,0,0,1-.9-2.24c-.07-.89,0-1.72,0-2.6V81.18a6.31,6.31,0,0,1,.89-2.86,6.62,6.62,0,0,1,5-3.22c8.09-.06,15.71,0,22.68,0a10.46,10.46,0,0,1,2.62.2,6.75,6.75,0,0,1,5,5.12,9.48,9.48,0,0,1,.16,2.32v15A6.09,6.09,0,0,1,556,99.1a5.87,5.87,0,0,1-1.33,2.1,5.71,5.71,0,0,1-3,1.59A4.22,4.22,0,0,1,550.47,102.85Z"/><path class="cls-5" d="M556,99.63a2.44,2.44,0,0,1-.35-.37l-.95-1.13-3.38-4.19L549,91l-1.29-1.63c-.22-.27-.45-.55-.67-.84a1.75,1.75,0,0,0-2.64,0l-1.48,1.9-3.12,4-1.39,1.79-.18.23-.21-.2L534.67,93l-.8-.77a2.68,2.68,0,0,0-.79-.63,1.89,1.89,0,0,0-1.79.1,4,4,0,0,0-.71.65l-.69.71-1.31,1.35-2.36,2.41-3.42,3.45-.94.92a1.64,1.64,0,0,1-.35.29,3.12,3.12,0,0,1,.28-.36l.87-1,3.3-3.56,2.32-2.46,1.29-1.37.68-.71a4.2,4.2,0,0,1,.79-.73,2.35,2.35,0,0,1,2.24-.15,3.24,3.24,0,0,1,.93.71l.81.77,3.36,3.25H538c.44-.57.92-1.17,1.39-1.79l3.13-4,1.5-1.9a2.22,2.22,0,0,1,2.35-.68,2.16,2.16,0,0,1,1,.68l.68.86,1.27,1.64,2.27,2.95,3.25,4.3.87,1.18A4,4,0,0,1,556,99.63Z"/><path class="cls-5" d="M536.76,86.3a2.16,2.16,0,0,0,.76-.2,3.08,3.08,0,0,0,1.65-1.18,3,3,0,1,0-4.81,0A3.15,3.15,0,0,0,536,86.1c.48.15.77.16.76.2s-.28.09-.8,0a3.23,3.23,0,0,1-1.89-1.15,3.36,3.36,0,0,1-.55-3.23,3.43,3.43,0,0,1,6.48,0,3.36,3.36,0,0,1-.54,3.23,3.23,3.23,0,0,1-1.89,1.15A1.4,1.4,0,0,1,536.76,86.3Z"/><g class="cls-15"><path d="M545.63,76s-.24,4.66,5.07,6.19a5.27,5.27,0,0,0,.6.14c2.42.43,18.3,3.26,18.3,2.89V80H551.12S546.51,79.86,545.63,76Z"/></g><path class="cls-20" d="M545.38,55.06V74.28A5.74,5.74,0,0,0,551.12,80H569.6Z"/></svg>