<svg width="24" height="25" viewBox="0 0 24 25" fill="none" xmlns="http://www.w3.org/2000/svg">
<path d="M20.0001 6.00257L16.0001 6.00265L16 4.00265C16 2.89265 15.11 2.00267 14 2.00269L10 2.00277C8.89 2.00279 8.00002 2.89281 8.00004 4.00281L8.00008 6.00281L4.00008 6.00289C2.89008 6.00291 2.0101 6.89293 2.01012 8.00293L2.00034 19.0029C2.00036 20.1129 2.89038 21.0029 4.00038 21.0029L20.0004 21.0026C21.1104 21.0026 22.0004 20.1125 22.0003 19.0025L22.0001 8.00253C22.0001 6.89253 21.1101 6.00255 20.0001 6.00257ZM14.0001 6.00269L10.0001 6.00277L10 4.00277L14 4.00269L14.0001 6.00269Z" fill="#575F66"/>
</svg>
