<svg id="Smooth" enable-background="new 0 0 128 128" height="512" viewBox="0 0 128 128" width="512" xmlns="http://www.w3.org/2000/svg" xmlns:xlink="http://www.w3.org/1999/xlink"><linearGradient id="lg1"><stop offset="0" stop-color="#ffdaaf"/><stop offset=".4152" stop-color="#ffd7ab"/><stop offset=".8447" stop-color="#ffcf9e"/><stop offset="1" stop-color="#ffcb98"/></linearGradient><linearGradient id="SVGID_1_" gradientTransform="matrix(-1 0 0 1 -1501 0)" gradientUnits="userSpaceOnUse" x1="-1604.756" x2="-1603.007" xlink:href="#lg1" y1="113.199" y2="122.061"/><linearGradient id="SVGID_2_" gradientUnits="userSpaceOnUse" x1="24.244" x2="25.993" xlink:href="#lg1" y1="113.199" y2="122.061"/><linearGradient id="SVGID_3_" gradientUnits="userSpaceOnUse" x1="24.136" x2="-11.697" y1="83.139" y2="83.306"><stop offset="0" stop-color="#dc464e"/><stop offset="1" stop-color="#c72e37"/></linearGradient><linearGradient id="SVGID_4_" gradientUnits="userSpaceOnUse" x1="62.625" x2="59.292" y1="39.773" y2="21.773"><stop offset="0" stop-color="#d59a61"/><stop offset="1" stop-color="#c07e51"/></linearGradient><linearGradient id="lg2"><stop offset="0" stop-color="#6b6297"/><stop offset="1" stop-color="#51437c"/></linearGradient><linearGradient id="SVGID_5_" gradientUnits="userSpaceOnUse" x1="56.581" x2="62.831" xlink:href="#lg2" y1="44.601" y2="98.851"/><linearGradient id="SVGID_6_" gradientUnits="userSpaceOnUse" x1="24.778" x2="31.028" xlink:href="#lg2" y1="48.265" y2="102.515"/><linearGradient id="SVGID_7_" gradientTransform="matrix(-1 0 0 1 -1480.932 0)" gradientUnits="userSpaceOnUse" x1="-1583.199" x2="-1576.949" xlink:href="#lg2" y1="56.557" y2="110.807"/><linearGradient id="lg3"><stop offset=".0487" stop-color="#f37e3e"/><stop offset="1" stop-color="#ea5c43"/></linearGradient><linearGradient id="SVGID_8_" gradientUnits="userSpaceOnUse" x1="100.765" x2="121.14" xlink:href="#lg3" y1="73.775" y2="73.65"/><linearGradient id="SVGID_9_" gradientUnits="userSpaceOnUse" x1="101.024" x2="121.399" xlink:href="#lg3" y1="81.84" y2="81.715"/><linearGradient id="SVGID_10_" gradientTransform="matrix(1 0 0 -1 0 -256)" gradientUnits="userSpaceOnUse" x1="98.397" x2="118.772" xlink:href="#lg3" y1="-346.216" y2="-346.341"/><linearGradient id="SVGID_11_" gradientUnits="userSpaceOnUse" x1="59.651" x2="59.401" y1="46.615" y2="105.365"><stop offset="0" stop-color="#ffd385"/><stop offset=".8238" stop-color="#ff9b34"/></linearGradient><linearGradient id="SVGID_12_" gradientUnits="userSpaceOnUse" x1="5.768" x2="25.768" y1="37.101" y2="54.935"><stop offset="0" stop-color="#957e7f"/><stop offset="1" stop-color="#373638"/></linearGradient><linearGradient id="lg4"><stop offset="0" stop-color="#deaf81"/><stop offset="1" stop-color="#ca926d"/></linearGradient><linearGradient id="SVGID_13_" gradientUnits="userSpaceOnUse" x1="36" x2="36" xlink:href="#lg4" y1="35" y2="45.5"/><linearGradient id="SVGID_14_" gradientUnits="userSpaceOnUse" x1="92" x2="92" xlink:href="#lg4" y1="35" y2="45.5"/><linearGradient id="SVGID_15_" gradientUnits="userSpaceOnUse" x1="48.788" x2="45.288" xlink:href="#lg4" y1="96.288" y2="71.538"/><linearGradient id="SVGID_16_" gradientUnits="userSpaceOnUse" x1="99.769" x2="96.269" xlink:href="#lg4" y1="89.078" y2="64.328"/><linearGradient id="SVGID_17_" gradientUnits="userSpaceOnUse" x1="51.548" x2="53.215" xlink:href="#lg1" y1="-2.627" y2="2.373"/><linearGradient id="SVGID_18_" gradientUnits="userSpaceOnUse" x1="9.696" x2="24.946" xlink:href="#lg4" y1="34.579" y2="37.829"/><linearGradient id="lg5"><stop offset="0" stop-color="#58595b"/><stop offset="1" stop-color="#414042"/></linearGradient><linearGradient id="SVGID_19_" gradientUnits="userSpaceOnUse" x1="4.79" x2="26.938" xlink:href="#lg5" y1="31.197" y2="30.071"/><linearGradient id="SVGID_20_" gradientUnits="userSpaceOnUse" x1="11.33" x2="33.478" xlink:href="#lg5" y1="32.492" y2="31.366"/><linearGradient id="SVGID_21_" gradientUnits="userSpaceOnUse" x1="61.699" x2="62.949" xlink:href="#lg5" y1="25.427" y2="34.427"/><linearGradient id="SVGID_22_" gradientUnits="userSpaceOnUse" x1="40.96" x2="41.674" xlink:href="#lg1" y1="82.114" y2="62.114"/><linearGradient id="lg6"><stop offset="0" stop-color="#f08674"/><stop offset=".2875" stop-color="#ed8272"/><stop offset=".5853" stop-color="#e5756c"/><stop offset=".8868" stop-color="#d86163"/><stop offset="1" stop-color="#d2575e"/></linearGradient><linearGradient id="SVGID_23_" gradientUnits="userSpaceOnUse" x1="41.022" x2="41.856" xlink:href="#lg6" y1="86.038" y2="64.871"/><linearGradient id="SVGID_24_" gradientUnits="userSpaceOnUse" x1="32.484" x2="33.318" xlink:href="#lg6" y1="85.702" y2="64.535"/><linearGradient id="SVGID_25_" gradientUnits="userSpaceOnUse" x1="40.354" x2="41.187" xlink:href="#lg6" y1="86.011" y2="64.845"/><linearGradient id="SVGID_26_" gradientUnits="userSpaceOnUse" x1="48.459" x2="49.293" xlink:href="#lg6" y1="86.33" y2="65.164"/><linearGradient id="SVGID_27_" gradientUnits="userSpaceOnUse" x1="88.96" x2="89.674" xlink:href="#lg1" y1="82.114" y2="62.114"/><linearGradient id="SVGID_28_" gradientUnits="userSpaceOnUse" x1="88.948" x2="89.781" xlink:href="#lg6" y1="87.925" y2="66.758"/><linearGradient id="SVGID_29_" gradientUnits="userSpaceOnUse" x1="80.41" x2="81.243" xlink:href="#lg6" y1="87.588" y2="66.422"/><linearGradient id="SVGID_30_" gradientUnits="userSpaceOnUse" x1="88.28" x2="89.113" xlink:href="#lg6" y1="87.898" y2="66.732"/><linearGradient id="SVGID_31_" gradientUnits="userSpaceOnUse" x1="96.385" x2="97.219" xlink:href="#lg6" y1="88.217" y2="67.051"/><linearGradient id="SVGID_32_" gradientUnits="userSpaceOnUse" x1="36.073" x2="32.323" xlink:href="#lg6" y1="66.934" y2="87.434"/><linearGradient id="SVGID_33_" gradientUnits="userSpaceOnUse" x1="81.905" x2="78.155" xlink:href="#lg6" y1="75.318" y2="95.818"/><g><path d="m107 65c4.547 2.077 8 3 8 3 4.833 1.625 8 4.145 8 8 0 4.335-2.433 8-7.851 8-5.744 0-11.447-1.077-17.149-3z" fill="url(#SVGID_1_)"/><path d="m21 65c-4.547 2.077-8 3-8 3-4.833 1.625-8 4.145-8 8 0 4.335 2.433 8 7.851 8 5.744 0 11.447-1.077 17.149-3z" fill="url(#SVGID_2_)"/><path d="m107 65.003c-3.559-1.657-8.348-4.383-12-7-5.885-3.85-9.005-6.547-14-4-5.542 2.007-11.255 3.007-17 2.998v-.003c-5.745.009-11.458-.991-17-2.998-4.995-2.547-8.115.15-14 4-3.652 2.617-8.441 5.343-12 7l9 16c2.473-.818 4.525-1.836 7-3l-4 31c7.286 2.616 19.202 3.949 31 3.997v.003c11.798-.048 23.714-1.381 31-3.997l-4-31c2.475 1.164 4.527 2.182 7 3z" fill="url(#SVGID_3_)"/><path d="m64 67c-8.284 0-15-6.716-15-15v-11h30v11c0 8.284-6.716 15-15 15z" fill="url(#SVGID_4_)"/><path d="m33.495 105.166-.495 3.834c7.286 2.616 19.202 3.949 31 3.997v.003c11.798-.048 23.714-1.381 31-3.997l-.495-3.834c-7.322 2.504-18.964 3.784-30.505 3.831v-.003c-11.541-.047-23.183-1.327-30.505-3.831z" fill="url(#SVGID_5_)"/><path d="m24.765 63.088c-1.329.72-2.614 1.376-3.765 1.912l9 16c1.442-.477 2.745-1.029 4.068-1.631z" fill="url(#SVGID_6_)"/><path d="m103.235 63.088c1.328.72 2.614 1.375 3.765 1.912l-9 16c-1.442-.477-2.745-1.029-4.068-1.631z" fill="url(#SVGID_7_)"/><g><path d="m55 77.013s1.847-5.963 7-6c1.057-.008 3.306-.274 1 2-.874.862-1 2 0 4z" fill="url(#SVGID_8_)"/><path d="m75 88c-1.339-4.727-1.327-7.439 0-12-4 0-6.933 1.267-8 3.367v5.241c1.063 2.105 4 3.392 8 3.392z" fill="url(#SVGID_9_)"/><path d="m55 86.995s1.847 6.01 7 6c1.32-.002 3.177.214 1-2-.861-.875-1-2 0-4z" fill="url(#SVGID_10_)"/><path d="m69 82c0 3.866-3.029 7-8 7s-11-3.134-11-7 6.029-7 11-7 8 3.134 8 7z" fill="url(#SVGID_11_)"/><circle cx="55" cy="81" fill="url(#SVGID_12_)" r="1"/></g><circle cx="36" cy="19" fill="url(#SVGID_13_)" r="15"/><circle cx="92" cy="19" fill="url(#SVGID_14_)" r="15"/><circle cx="38" cy="20" fill="url(#SVGID_15_)" r="9"/><circle cx="90" cy="20" fill="url(#SVGID_16_)" r="9"/><path d="m97 35c0 17.121-14.775 27-33 27s-33-9.879-33-27 14.775-33 33-33 33 15.879 33 33z" fill="url(#SVGID_17_)"/><path d="m79 48c0 6.627-6.716 10-15 10s-15-3.373-15-10 6.716-14 15-14 15 7.373 15 14z" fill="url(#SVGID_18_)"/><ellipse cx="48" cy="29" fill="url(#SVGID_19_)" rx="3" ry="4"/><ellipse cx="80" cy="29" fill="url(#SVGID_20_)" rx="3" ry="4"/><path d="m70 42c0 1.657-2.686 3-6 3s-6-1.343-6-3 2.686-4 6-4 6 2.343 6 4z" fill="url(#SVGID_21_)"/><g><path d="m58 109c0 11.046-8.006 17-18 17s-18-5.954-18-17 8.006-23 18-23 18 11.954 18 23z" fill="url(#SVGID_22_)"/><circle cx="40" cy="112" fill="url(#SVGID_23_)" r="10"/><circle cx="32" cy="98" fill="url(#SVGID_24_)" r="2"/><circle cx="40" cy="95" fill="url(#SVGID_25_)" r="2"/><circle cx="48" cy="98" fill="url(#SVGID_26_)" r="2"/></g><g><path d="m106 109c0 11.046-8.006 17-18 17s-18-5.954-18-17 8.006-23 18-23 18 11.954 18 23z" fill="url(#SVGID_27_)"/><circle cx="88" cy="112" fill="url(#SVGID_28_)" r="10"/><circle cx="80" cy="98" fill="url(#SVGID_29_)" r="2"/><circle cx="88" cy="95" fill="url(#SVGID_30_)" r="2"/><circle cx="96" cy="98" fill="url(#SVGID_31_)" r="2"/></g><ellipse cx="41" cy="40" fill="url(#SVGID_32_)" rx="5" ry="3"/><ellipse cx="88" cy="42" fill="url(#SVGID_33_)" rx="5" ry="3"/></g></svg>